<svg xmlns="http://www.w3.org/2000/svg" xmlns:xlink="http://www.w3.org/1999/xlink" width="235" zoomAndPan="magnify" viewBox="0 0 176.25 129.749996" height="173" preserveAspectRatio="xMidYMid meet" version="1.0"><defs><clipPath id="a3184c508b"><path d="M 0 0.152344 L 87.628906 0.152344 L 87.628906 94.375 L 0 94.375 Z M 0 0.152344 " clip-rule="nonzero"/></clipPath><clipPath id="9e3bc64ba4"><path d="M 87.15625 34.507812 L 174.785156 34.507812 L 174.785156 128.734375 L 87.15625 128.734375 Z M 87.15625 34.507812 " clip-rule="nonzero"/></clipPath></defs><g clip-path="url(#a3184c508b)"><path fill="#ffffff" d="M 84.839844 0.152344 C 84.792969 0.152344 84.746094 0.160156 84.699219 0.167969 C 84.613281 0.191406 84.53125 0.21875 84.453125 0.257812 C 84.359375 0.296875 84.261719 0.335938 84.167969 0.375 C 83.976562 0.449219 83.785156 0.53125 83.59375 0.605469 C 83.402344 0.683594 83.207031 0.75 83.011719 0.824219 C 82.640625 0.960938 82.269531 1.101562 81.894531 1.242188 C 80.71875 1.683594 79.546875 2.121094 78.371094 2.5625 C 77.972656 2.710938 77.570312 2.859375 77.167969 3.011719 C 76.976562 3.082031 76.785156 3.15625 76.589844 3.226562 C 76.03125 3.425781 75.472656 3.613281 74.914062 3.808594 C 73.824219 4.183594 72.734375 4.5625 71.648438 4.9375 C 70.949219 5.179688 70.25 5.417969 69.554688 5.664062 C 69.109375 5.820312 68.664062 5.980469 68.21875 6.140625 C 67.34375 6.453125 66.46875 6.765625 65.589844 7.078125 C 64.910156 7.324219 64.230469 7.566406 63.546875 7.8125 C 63.3125 7.894531 63.074219 7.980469 62.839844 8.0625 C 62.726562 8.105469 62.617188 8.140625 62.503906 8.183594 C 62.160156 8.316406 61.820312 8.453125 61.476562 8.589844 C 60.820312 8.851562 60.160156 9.109375 59.503906 9.371094 C 58.625 9.71875 57.75 10.066406 56.871094 10.410156 C 56.449219 10.578125 56.019531 10.742188 55.597656 10.917969 C 55.257812 11.054688 54.917969 11.203125 54.582031 11.347656 C 53.929688 11.625 53.277344 11.902344 52.628906 12.175781 C 51.761719 12.546875 50.890625 12.914062 50.023438 13.28125 C 49.605469 13.460938 49.183594 13.636719 48.761719 13.820312 C 48.464844 13.949219 48.171875 14.082031 47.875 14.214844 C 47.296875 14.476562 46.71875 14.734375 46.144531 14.996094 C 45.214844 15.414062 44.289062 15.828125 43.363281 16.246094 C 43.050781 16.386719 42.742188 16.523438 42.433594 16.660156 C 42.273438 16.734375 42.109375 16.804688 41.949219 16.878906 C 41.578125 17.054688 41.207031 17.242188 40.835938 17.421875 C 40.09375 17.785156 39.351562 18.148438 38.609375 18.507812 C 37.867188 18.871094 37.125 19.234375 36.382812 19.597656 C 36.011719 19.777344 35.640625 19.953125 35.273438 20.140625 C 35.019531 20.265625 34.773438 20.402344 34.523438 20.53125 C 34.054688 20.777344 33.582031 21.023438 33.113281 21.273438 C 31.675781 22.027344 30.234375 22.78125 28.796875 23.539062 C 28.234375 23.832031 27.671875 24.132812 27.113281 24.429688 C 26.082031 24.976562 25.050781 25.527344 24.019531 26.074219 C 23.574219 26.308594 23.132812 26.542969 22.6875 26.78125 C 22.480469 26.890625 22.273438 27.003906 22.0625 27.113281 C 21.707031 27.292969 21.347656 27.464844 20.988281 27.640625 C 20.300781 27.976562 19.613281 28.316406 18.925781 28.65625 C 18.128906 29.046875 17.335938 29.433594 16.542969 29.824219 C 16.15625 30.015625 15.777344 30.207031 15.390625 30.390625 C 15.269531 30.449219 15.148438 30.5 15.027344 30.554688 C 14.800781 30.65625 14.570312 30.761719 14.34375 30.863281 C 13.671875 31.167969 13 31.46875 12.328125 31.773438 C 11.496094 32.148438 10.664062 32.527344 9.832031 32.902344 C 9.414062 33.089844 9 33.285156 8.582031 33.464844 C 7.988281 33.722656 7.390625 33.972656 6.792969 34.226562 C 5.597656 34.734375 4.40625 35.242188 3.214844 35.75 L 1.953125 36.285156 C 1.886719 36.3125 1.816406 36.34375 1.75 36.371094 C 1.648438 36.414062 1.570312 36.4375 1.484375 36.519531 C 1.425781 36.574219 1.382812 36.640625 1.355469 36.714844 C 1.304688 36.839844 1.3125 36.992188 1.308594 37.125 C 1.304688 37.152344 1.304688 37.175781 1.304688 37.203125 C 1.300781 37.253906 1.300781 37.308594 1.296875 37.359375 C 1.285156 37.695312 1.269531 38.035156 1.257812 38.375 C 1.210938 39.570312 1.164062 40.765625 1.117188 41.964844 C 1.097656 42.457031 1.078125 42.953125 1.058594 43.445312 C 1.050781 43.707031 1.046875 43.96875 1.027344 44.226562 C 1.007812 44.589844 0.972656 44.957031 0.941406 45.320312 C 0.890625 45.996094 0.835938 46.671875 0.78125 47.347656 C 0.644531 49.117188 0.507812 50.886719 0.359375 52.65625 C 0.265625 53.722656 0.175781 54.789062 0.0859375 55.851562 C 0.0703125 56.0625 0.0507812 56.269531 0.0351562 56.480469 C 0.0273438 56.554688 0.0195312 56.632812 0.015625 56.710938 C 0.0117188 56.746094 0.00390625 56.792969 0.00390625 56.828125 C 0.00390625 56.917969 0.0078125 57.003906 0.0195312 57.09375 C 0.0234375 57.125 0.03125 57.152344 0.0351562 57.183594 C 0.046875 57.253906 0.0664062 57.324219 0.0859375 57.394531 C 0.199219 57.765625 0.40625 58.070312 0.710938 58.308594 C 0.8125 58.390625 0.921875 58.457031 1.035156 58.515625 C 1.066406 58.53125 1.097656 58.542969 1.125 58.558594 C 1.339844 58.671875 1.554688 58.789062 1.765625 58.902344 C 2.054688 59.058594 2.339844 59.210938 2.625 59.367188 C 2.78125 59.449219 2.9375 59.539062 3.097656 59.617188 C 3.597656 59.871094 4.101562 60.117188 4.601562 60.363281 C 5.753906 60.933594 6.902344 61.503906 8.054688 62.074219 C 8.4375 62.261719 8.820312 62.453125 9.203125 62.640625 C 9.386719 62.734375 9.570312 62.828125 9.757812 62.917969 C 9.957031 63.011719 10.160156 63.097656 10.363281 63.1875 C 10.765625 63.371094 11.167969 63.550781 11.570312 63.734375 C 12.777344 64.28125 13.988281 64.824219 15.195312 65.371094 C 15.640625 65.570312 16.082031 65.773438 16.527344 65.96875 C 16.863281 66.117188 17.203125 66.257812 17.542969 66.402344 C 18.207031 66.683594 18.871094 66.964844 19.539062 67.246094 C 20.390625 67.609375 21.246094 67.972656 22.101562 68.335938 C 22.386719 68.453125 22.671875 68.574219 22.957031 68.695312 C 23.105469 68.757812 23.253906 68.824219 23.402344 68.882812 C 23.757812 69.027344 24.117188 69.164062 24.472656 69.304688 C 25.160156 69.574219 25.84375 69.847656 26.53125 70.117188 C 27.382812 70.449219 28.230469 70.785156 29.082031 71.121094 C 29.355469 71.226562 29.628906 71.335938 29.902344 71.445312 C 30.042969 71.496094 30.179688 71.554688 30.316406 71.605469 C 30.632812 71.726562 30.957031 71.832031 31.277344 71.945312 C 31.886719 72.164062 32.5 72.378906 33.113281 72.597656 C 34.0625 72.933594 35.007812 73.269531 35.953125 73.605469 C 36.425781 73.773438 36.898438 73.941406 37.371094 74.105469 C 39.007812 74.667969 40.644531 75.222656 42.28125 75.78125 C 42.757812 75.945312 43.234375 76.105469 43.707031 76.269531 C 43.945312 76.351562 44.183594 76.429688 44.421875 76.511719 C 44.835938 76.660156 45.253906 76.820312 45.667969 76.972656 C 46.5 77.277344 47.332031 77.582031 48.160156 77.882812 C 48.882812 78.148438 49.601562 78.414062 50.324219 78.679688 C 50.683594 78.8125 51.042969 78.9375 51.402344 79.074219 C 51.539062 79.125 51.675781 79.183594 51.8125 79.238281 C 52.070312 79.34375 52.332031 79.449219 52.589844 79.554688 C 53.382812 79.875 54.175781 80.195312 54.96875 80.515625 C 55.679688 80.804688 56.390625 81.09375 57.097656 81.378906 C 57.371094 81.492188 57.644531 81.601562 57.917969 81.710938 C 58.054688 81.765625 58.191406 81.820312 58.328125 81.878906 C 58.488281 81.949219 58.652344 82.019531 58.816406 82.089844 L 63.023438 83.9375 C 63.496094 84.144531 63.96875 84.351562 64.4375 84.558594 C 64.667969 84.660156 64.902344 84.753906 65.128906 84.859375 C 65.289062 84.933594 65.445312 85.015625 65.605469 85.09375 C 65.921875 85.25 66.238281 85.40625 66.554688 85.5625 C 67.484375 86.019531 68.410156 86.476562 69.335938 86.929688 L 75.449219 89.9375 C 76.535156 90.472656 77.617188 91.011719 78.703125 91.542969 C 80.253906 92.296875 81.804688 93.054688 83.359375 93.808594 L 83.953125 94.101562 C 84.144531 94.191406 84.320312 94.292969 84.527344 94.335938 C 84.578125 94.347656 84.632812 94.355469 84.6875 94.363281 C 84.75 94.371094 84.8125 94.375 84.875 94.375 C 84.953125 94.371094 85.027344 94.367188 85.101562 94.355469 C 85.28125 94.328125 85.453125 94.269531 85.613281 94.179688 C 85.695312 94.132812 85.777344 94.078125 85.851562 94.015625 C 85.984375 93.902344 86.097656 93.765625 86.1875 93.613281 C 86.253906 93.5 86.304688 93.378906 86.339844 93.253906 C 86.355469 93.207031 86.363281 93.15625 86.371094 93.109375 C 86.390625 92.996094 86.398438 92.882812 86.398438 92.769531 C 86.40625 92.617188 86.414062 92.464844 86.417969 92.3125 C 86.484375 90.882812 86.542969 89.453125 86.601562 88.023438 C 86.863281 81.847656 86.605469 88.023438 87.386719 69.5 C 87.386719 69.476562 87.386719 69.457031 87.382812 69.4375 C 87.382812 69.429688 87.382812 69.421875 87.382812 69.414062 C 87.363281 68.742188 87.109375 68.171875 86.632812 67.707031 C 86.625 67.699219 86.621094 67.695312 86.617188 67.691406 C 86.316406 67.402344 85.972656 67.203125 85.574219 67.089844 C 71.742188 62.363281 75.96875 63.804688 71.167969 62.167969 C 69.011719 61.429688 66.855469 60.695312 64.699219 59.957031 C 63.546875 59.566406 62.390625 59.183594 61.234375 58.792969 C 58.945312 58.023438 56.652344 57.253906 54.363281 56.484375 C 53.523438 56.199219 52.683594 55.917969 51.839844 55.636719 C 51.425781 55.496094 51.007812 55.359375 50.589844 55.214844 C 50.421875 55.15625 50.253906 55.09375 50.085938 55.03125 C 49.789062 54.925781 49.492188 54.816406 49.195312 54.707031 C 48.28125 54.375 47.363281 54.039062 46.449219 53.707031 C 45.808594 53.472656 45.167969 53.238281 44.523438 53.003906 C 44.210938 52.890625 43.894531 52.78125 43.582031 52.660156 C 43.242188 52.53125 42.902344 52.390625 42.5625 52.253906 C 41.886719 51.984375 41.210938 51.714844 40.535156 51.449219 C 39.679688 51.105469 38.820312 50.765625 37.964844 50.421875 C 37.523438 50.246094 37.082031 50.078125 36.644531 49.894531 C 36.308594 49.757812 35.976562 49.613281 35.640625 49.472656 L 33.664062 48.628906 C 32.820312 48.273438 31.976562 47.914062 31.132812 47.554688 C 30.601562 47.332031 30.070312 47.109375 29.542969 46.867188 C 30.117188 46.683594 30.695312 46.5 31.269531 46.316406 C 31.460938 46.253906 31.652344 46.191406 31.84375 46.132812 C 32.136719 46.042969 32.429688 45.960938 32.71875 45.871094 C 33.242188 45.71875 33.769531 45.5625 34.292969 45.40625 C 35.84375 44.945312 37.398438 44.484375 38.949219 44.019531 C 39.375 43.894531 39.800781 43.753906 40.226562 43.621094 C 41.035156 43.367188 41.84375 43.113281 42.65625 42.859375 C 43.425781 42.617188 44.199219 42.375 44.972656 42.132812 C 45.355469 42.011719 45.746094 41.894531 46.128906 41.769531 C 46.472656 41.652344 46.816406 41.527344 47.160156 41.40625 C 47.804688 41.175781 48.453125 40.949219 49.101562 40.722656 C 50.015625 40.398438 50.929688 40.078125 51.84375 39.753906 C 52.28125 39.601562 52.71875 39.449219 53.15625 39.289062 C 53.609375 39.125 54.0625 38.945312 54.515625 38.773438 C 55.421875 38.429688 56.328125 38.085938 57.230469 37.738281 C 57.875 37.496094 58.515625 37.25 59.15625 37.007812 C 59.476562 36.886719 59.800781 36.769531 60.121094 36.640625 C 60.550781 36.46875 60.976562 36.289062 61.40625 36.113281 C 62.265625 35.761719 63.125 35.410156 63.984375 35.054688 C 64.660156 34.78125 65.332031 34.503906 66.003906 34.230469 C 66.226562 34.136719 66.453125 34.046875 66.675781 33.953125 C 66.789062 33.910156 66.902344 33.863281 67.011719 33.816406 C 67.382812 33.652344 67.75 33.484375 68.117188 33.316406 C 68.835938 32.992188 69.554688 32.667969 70.273438 32.34375 C 71.066406 31.988281 71.859375 31.628906 72.652344 31.273438 C 72.910156 31.15625 73.167969 31.039062 73.425781 30.921875 C 73.59375 30.847656 73.757812 30.773438 73.921875 30.695312 C 75.378906 29.988281 76.839844 29.28125 78.296875 28.574219 C 79.027344 28.21875 79.753906 27.863281 80.484375 27.511719 C 80.777344 27.375 81.074219 27.242188 81.367188 27.105469 C 81.898438 26.859375 82.429688 26.613281 82.960938 26.367188 C 83.203125 26.253906 83.441406 26.144531 83.679688 26.035156 C 83.882812 25.941406 84.082031 25.847656 84.285156 25.753906 C 84.523438 25.644531 84.761719 25.535156 85 25.421875 C 85.160156 25.347656 85.335938 25.285156 85.46875 25.171875 C 85.675781 25.003906 85.792969 24.789062 85.828125 24.523438 C 85.835938 24.414062 85.832031 24.304688 85.820312 24.195312 C 85.8125 24.042969 85.800781 23.890625 85.792969 23.738281 C 85.757812 23.246094 85.726562 22.757812 85.695312 22.265625 C 85.683594 22.097656 85.679688 21.929688 85.675781 21.761719 C 85.667969 21.515625 85.664062 21.269531 85.65625 21.027344 C 85.636719 20.292969 85.617188 19.554688 85.597656 18.820312 C 85.574219 17.902344 85.546875 16.980469 85.523438 16.0625 C 85.511719 15.617188 85.496094 15.175781 85.488281 14.730469 C 85.484375 14.5625 85.488281 14.394531 85.488281 14.226562 C 85.488281 13.902344 85.488281 13.582031 85.488281 13.261719 C 85.488281 12.3125 85.488281 11.359375 85.484375 10.410156 C 85.484375 9.707031 85.484375 9.003906 85.484375 8.296875 C 85.484375 7.960938 85.480469 7.625 85.484375 7.285156 C 85.488281 6.964844 85.5 6.644531 85.507812 6.320312 C 85.539062 4.867188 85.574219 3.410156 85.609375 1.957031 C 85.613281 1.789062 85.617188 1.621094 85.621094 1.449219 C 85.621094 1.328125 85.625 1.207031 85.628906 1.082031 C 85.632812 0.921875 85.640625 0.785156 85.574219 0.628906 C 85.5625 0.59375 85.546875 0.5625 85.527344 0.53125 C 85.507812 0.496094 85.484375 0.460938 85.457031 0.429688 C 85.429688 0.394531 85.394531 0.363281 85.359375 0.332031 C 85.324219 0.300781 85.285156 0.273438 85.242188 0.25 C 85.203125 0.226562 85.160156 0.207031 85.113281 0.191406 C 85.070312 0.175781 85.03125 0.167969 84.988281 0.160156 C 84.9375 0.152344 84.890625 0.148438 84.839844 0.152344 Z M 84.148438 2.070312 C 84.148438 2.203125 84.152344 2.332031 84.15625 2.460938 C 84.179688 3.488281 84.203125 4.515625 84.226562 5.539062 C 84.238281 5.921875 84.246094 6.304688 84.253906 6.6875 C 84.257812 6.886719 84.265625 7.085938 84.265625 7.285156 C 84.269531 7.730469 84.265625 8.175781 84.265625 8.617188 C 84.265625 9.507812 84.265625 10.394531 84.265625 11.285156 C 84.265625 12.050781 84.265625 12.816406 84.265625 13.582031 C 84.265625 13.964844 84.269531 14.347656 84.265625 14.730469 C 84.25 15.449219 84.226562 16.171875 84.207031 16.890625 C 84.167969 18.332031 84.128906 19.769531 84.089844 21.210938 C 84.085938 21.425781 84.078125 21.636719 84.074219 21.851562 C 84.070312 21.960938 84.070312 22.066406 84.066406 22.175781 C 84.042969 22.574219 84.011719 22.972656 83.984375 23.371094 C 83.980469 23.484375 83.972656 23.59375 83.964844 23.707031 C 83.921875 23.722656 83.878906 23.734375 83.835938 23.746094 C 83.410156 23.878906 82.984375 24.011719 82.5625 24.144531 C 81.578125 24.453125 80.59375 24.761719 79.605469 25.066406 C 79.296875 25.160156 78.984375 25.246094 78.671875 25.339844 C 77.273438 25.746094 75.875 26.15625 74.472656 26.5625 C 73.792969 26.761719 73.109375 26.953125 72.429688 27.160156 C 72.21875 27.222656 72.007812 27.292969 71.796875 27.363281 C 71.410156 27.488281 71.027344 27.609375 70.640625 27.734375 C 69.46875 28.113281 68.292969 28.492188 67.117188 28.871094 C 66.714844 29 66.3125 29.128906 65.90625 29.261719 C 65.714844 29.320312 65.519531 29.382812 65.328125 29.445312 C 65.195312 29.492188 65.0625 29.542969 64.929688 29.589844 C 64.683594 29.679688 64.4375 29.769531 64.191406 29.855469 C 63.449219 30.125 62.707031 30.390625 61.96875 30.660156 L 59.519531 31.542969 C 59.117188 31.6875 58.71875 31.828125 58.320312 31.972656 C 57.980469 32.101562 57.644531 32.238281 57.304688 32.371094 C 56.628906 32.632812 55.953125 32.898438 55.273438 33.160156 C 54.410156 33.5 53.542969 33.835938 52.679688 34.175781 C 52.246094 34.34375 51.8125 34.507812 51.378906 34.679688 C 50.929688 34.859375 50.484375 35.054688 50.039062 35.242188 C 49.164062 35.605469 48.289062 35.972656 47.414062 36.339844 C 46.761719 36.613281 46.109375 36.886719 45.457031 37.15625 C 45.140625 37.289062 44.820312 37.417969 44.507812 37.554688 C 44.15625 37.710938 43.808594 37.878906 43.460938 38.039062 C 42.796875 38.34375 42.136719 38.644531 41.472656 38.949219 C 40.648438 39.332031 39.820312 39.710938 38.992188 40.09375 C 38.570312 40.285156 38.144531 40.476562 37.726562 40.675781 C 37.011719 41.011719 36.300781 41.355469 35.589844 41.699219 C 34.566406 42.1875 33.542969 42.675781 32.519531 43.167969 L 31.480469 43.664062 C 31.316406 43.746094 31.152344 43.824219 30.988281 43.902344 C 30.691406 44.035156 30.398438 44.167969 30.101562 44.300781 L 28.445312 45.054688 C 28.277344 45.128906 28.113281 45.203125 27.949219 45.277344 C 27.800781 45.34375 27.652344 45.410156 27.507812 45.476562 C 27.394531 45.527344 27.285156 45.578125 27.171875 45.628906 C 27.027344 45.695312 26.878906 45.761719 26.730469 45.828125 C 26.691406 45.847656 26.652344 45.863281 26.613281 45.882812 C 26.589844 45.890625 26.570312 45.898438 26.554688 45.914062 C 26.441406 46.011719 26.21875 46.070312 26.230469 46.21875 C 26.261719 46.695312 26.523438 47.121094 26.671875 47.574219 C 26.671875 47.574219 26.710938 47.585938 26.714844 47.589844 C 26.71875 47.589844 26.722656 47.589844 26.730469 47.59375 C 26.777344 47.609375 26.820312 47.625 26.867188 47.640625 C 27.0625 47.703125 27.253906 47.765625 27.445312 47.828125 C 27.84375 47.960938 28.242188 48.089844 28.640625 48.222656 C 28.847656 48.289062 29.058594 48.355469 29.265625 48.425781 C 29.457031 48.496094 29.652344 48.566406 29.84375 48.636719 C 31.265625 49.152344 32.6875 49.667969 34.109375 50.183594 C 34.8125 50.441406 35.523438 50.691406 36.226562 50.957031 C 36.402344 51.019531 36.574219 51.089844 36.75 51.15625 C 37.0625 51.28125 37.375 51.402344 37.6875 51.523438 C 38.613281 51.886719 39.542969 52.246094 40.472656 52.605469 C 41.070312 52.839844 41.667969 53.074219 42.265625 53.304688 C 42.574219 53.425781 42.882812 53.539062 43.1875 53.664062 C 43.617188 53.839844 44.046875 54.027344 44.476562 54.207031 C 45.339844 54.574219 46.203125 54.941406 47.066406 55.304688 C 47.734375 55.589844 48.402344 55.871094 49.070312 56.152344 C 49.398438 56.292969 49.730469 56.429688 50.054688 56.574219 C 50.496094 56.769531 50.929688 56.96875 51.367188 57.167969 C 52.230469 57.5625 53.09375 57.953125 53.957031 58.34375 C 56.566406 59.527344 59.175781 60.710938 61.785156 61.894531 C 64.828125 63.273438 67.878906 64.636719 70.929688 66 C 74.765625 67.71875 74.199219 67.464844 82.4375 71.152344 C 82.871094 81.433594 82.828125 80.421875 83.023438 85.058594 C 83.097656 86.792969 83.171875 88.527344 83.242188 90.257812 C 83.25 90.378906 83.253906 90.5 83.257812 90.621094 C 82.070312 90.164062 80.882812 89.710938 79.695312 89.257812 C 78.355469 88.75 77.015625 88.25 75.679688 87.742188 C 73.167969 86.796875 70.65625 85.847656 68.144531 84.902344 C 67.5625 84.683594 66.984375 84.464844 66.40625 84.246094 C 66.210938 84.175781 66.019531 84.101562 65.824219 84.027344 C 65.730469 83.992188 65.632812 83.957031 65.535156 83.917969 C 65.414062 83.871094 65.289062 83.816406 65.167969 83.761719 C 64.953125 83.667969 64.734375 83.578125 64.519531 83.484375 C 63.867188 83.207031 63.21875 82.925781 62.570312 82.648438 C 61.703125 82.277344 60.835938 81.90625 59.96875 81.535156 C 59.550781 81.355469 59.128906 81.179688 58.710938 80.996094 C 58.386719 80.855469 58.066406 80.699219 57.746094 80.550781 C 57.144531 80.273438 56.542969 79.996094 55.941406 79.714844 C 55.046875 79.300781 54.148438 78.886719 53.253906 78.472656 C 52.960938 78.335938 52.664062 78.199219 52.371094 78.0625 C 52.222656 77.996094 52.074219 77.929688 51.929688 77.859375 C 51.582031 77.691406 51.242188 77.515625 50.902344 77.34375 C 50.214844 76.996094 49.53125 76.652344 48.84375 76.308594 C 48.054688 75.910156 47.261719 75.511719 46.472656 75.113281 C 46.078125 74.914062 45.679688 74.71875 45.285156 74.515625 C 45.0625 74.402344 44.84375 74.28125 44.621094 74.160156 C 44.175781 73.925781 43.734375 73.691406 43.289062 73.453125 C 41.761719 72.644531 40.238281 71.828125 38.710938 71.019531 C 38.28125 70.792969 37.84375 70.570312 37.414062 70.347656 C 36.558594 69.90625 35.707031 69.464844 34.855469 69.023438 L 32.964844 68.046875 C 32.664062 67.890625 32.367188 67.730469 32.0625 67.578125 C 31.746094 67.421875 31.421875 67.273438 31.101562 67.125 C 30.488281 66.832031 29.878906 66.542969 29.265625 66.25 C 28.386719 65.835938 27.507812 65.417969 26.628906 65 C 26.203125 64.800781 25.777344 64.59375 25.351562 64.394531 C 24.976562 64.222656 24.59375 64.058594 24.21875 63.894531 C 23.503906 63.578125 22.789062 63.261719 22.078125 62.945312 C 21.28125 62.59375 20.488281 62.242188 19.691406 61.886719 C 19.300781 61.714844 18.914062 61.535156 18.519531 61.367188 C 17.964844 61.132812 17.402344 60.90625 16.847656 60.671875 C 15.746094 60.214844 14.644531 59.757812 13.542969 59.296875 C 13.121094 59.125 12.699219 58.949219 12.277344 58.773438 C 12.074219 58.6875 11.871094 58.601562 11.664062 58.519531 C 11.460938 58.4375 11.25 58.363281 11.042969 58.285156 C 10.640625 58.136719 10.242188 57.984375 9.839844 57.835938 C 8.640625 57.386719 7.4375 56.9375 6.234375 56.484375 C 5.722656 56.292969 5.214844 56.097656 4.703125 55.910156 C 4.589844 55.871094 4.476562 55.835938 4.367188 55.796875 C 4.167969 55.730469 3.972656 55.664062 3.777344 55.601562 C 3.699219 55.574219 3.621094 55.546875 3.546875 55.523438 C 3.535156 55.375 3.519531 55.222656 3.507812 55.074219 C 3.410156 53.902344 3.304688 52.734375 3.210938 51.5625 C 3.082031 49.921875 2.953125 48.285156 2.824219 46.644531 C 2.78125 46.097656 2.738281 45.554688 2.695312 45.007812 C 2.671875 44.746094 2.648438 44.488281 2.632812 44.226562 C 2.613281 43.941406 2.609375 43.65625 2.597656 43.367188 C 2.578125 42.847656 2.558594 42.328125 2.539062 41.808594 C 2.492188 40.636719 2.445312 39.464844 2.402344 38.296875 C 2.386719 37.957031 2.371094 37.621094 2.359375 37.28125 C 2.359375 37.261719 2.359375 37.238281 2.359375 37.21875 C 2.476562 37.164062 2.601562 37.109375 2.722656 37.054688 C 3.152344 36.867188 3.582031 36.675781 4.015625 36.484375 C 5.308594 35.914062 6.601562 35.34375 7.894531 34.773438 C 8.246094 34.617188 8.597656 34.460938 8.949219 34.308594 C 9.367188 34.125 9.789062 33.957031 10.210938 33.78125 L 12.621094 32.78125 C 13.339844 32.480469 14.0625 32.179688 14.78125 31.882812 C 15.015625 31.785156 15.246094 31.691406 15.476562 31.59375 C 15.601562 31.542969 15.722656 31.488281 15.84375 31.441406 C 16.285156 31.269531 16.726562 31.109375 17.167969 30.941406 C 18.023438 30.617188 18.878906 30.292969 19.734375 29.972656 C 20.425781 29.710938 21.117188 29.449219 21.804688 29.1875 C 22.136719 29.0625 22.464844 28.933594 22.796875 28.8125 C 23.160156 28.683594 23.527344 28.566406 23.890625 28.441406 C 24.601562 28.199219 25.316406 27.953125 26.027344 27.707031 C 27.300781 27.273438 28.574219 26.835938 29.84375 26.402344 C 31.058594 25.984375 32.273438 25.558594 33.488281 25.136719 C 34.253906 24.871094 35.023438 24.601562 35.789062 24.335938 C 36.164062 24.203125 36.542969 24.078125 36.917969 23.941406 C 37.308594 23.800781 37.691406 23.648438 38.074219 23.5 L 40.390625 22.621094 C 41.164062 22.328125 41.9375 22.03125 42.707031 21.738281 C 43.09375 21.59375 43.480469 21.449219 43.863281 21.296875 C 44 21.242188 44.136719 21.183594 44.273438 21.125 C 44.542969 21.011719 44.816406 20.898438 45.089844 20.785156 C 45.90625 20.445312 46.71875 20.105469 47.535156 19.765625 C 48.253906 19.464844 48.976562 19.164062 49.695312 18.863281 C 50.050781 18.714844 50.40625 18.570312 50.757812 18.417969 C 51.203125 18.226562 51.644531 18.027344 52.089844 17.828125 C 52.964844 17.441406 53.84375 17.054688 54.71875 16.667969 C 55.351562 16.386719 55.984375 16.105469 56.617188 15.828125 C 56.925781 15.691406 57.238281 15.558594 57.546875 15.417969 C 57.789062 15.304688 58.027344 15.191406 58.269531 15.078125 L 59.707031 14.398438 L 63.945312 12.394531 C 64.050781 12.34375 64.15625 12.292969 64.265625 12.242188 C 64.398438 12.179688 64.527344 12.109375 64.660156 12.042969 C 64.882812 11.925781 65.105469 11.8125 65.328125 11.699219 C 65.945312 11.382812 66.5625 11.0625 67.179688 10.746094 C 68.007812 10.320312 68.835938 9.894531 69.660156 9.472656 C 70.082031 9.253906 70.503906 9.042969 70.921875 8.824219 C 71.800781 8.367188 72.675781 7.902344 73.550781 7.441406 C 74.398438 6.992188 75.25 6.546875 76.097656 6.097656 C 76.570312 5.851562 77.039062 5.597656 77.511719 5.355469 C 77.683594 5.265625 77.855469 5.183594 78.027344 5.097656 C 79.613281 4.3125 81.199219 3.527344 82.785156 2.742188 C 83.089844 2.59375 83.394531 2.441406 83.699219 2.292969 C 83.847656 2.21875 83.996094 2.144531 84.148438 2.070312 Z M 3.632812 56.554688 C 3.636719 56.570312 3.640625 56.582031 3.640625 56.597656 C 3.652344 56.667969 3.65625 56.742188 3.65625 56.816406 C 3.65625 56.804688 3.652344 56.800781 3.652344 56.792969 C 3.652344 56.765625 3.648438 56.738281 3.648438 56.710938 C 3.644531 56.6875 3.640625 56.660156 3.640625 56.632812 C 3.636719 56.609375 3.636719 56.582031 3.632812 56.554688 Z M 3.632812 56.554688 " fill-opacity="1" fill-rule="nonzero"/></g><g clip-path="url(#9e3bc64ba4)"><path fill="#007bff" d="M 89.945312 128.734375 C 89.992188 128.730469 90.042969 128.726562 90.089844 128.714844 C 90.171875 128.691406 90.253906 128.664062 90.332031 128.628906 C 90.429688 128.589844 90.523438 128.550781 90.621094 128.511719 C 90.8125 128.433594 91.003906 128.355469 91.195312 128.277344 C 91.386719 128.203125 91.578125 128.132812 91.773438 128.0625 C 92.144531 127.921875 92.519531 127.78125 92.890625 127.640625 C 94.066406 127.203125 95.242188 126.761719 96.414062 126.324219 C 96.816406 126.175781 97.214844 126.023438 97.617188 125.875 C 97.808594 125.800781 98.003906 125.726562 98.195312 125.65625 C 98.753906 125.457031 99.3125 125.269531 99.871094 125.078125 C 100.960938 124.699219 102.050781 124.324219 103.140625 123.945312 C 103.839844 123.703125 104.535156 123.464844 105.234375 123.222656 C 105.679688 123.066406 106.125 122.902344 106.566406 122.742188 C 107.445312 122.429688 108.320312 122.117188 109.195312 121.804688 C 109.875 121.5625 110.558594 121.316406 111.238281 121.074219 C 111.476562 120.988281 111.710938 120.90625 111.949219 120.820312 C 112.058594 120.78125 112.171875 120.742188 112.28125 120.703125 C 112.625 120.570312 112.964844 120.429688 113.308594 120.292969 C 113.964844 120.035156 114.625 119.773438 115.285156 119.515625 C 116.160156 119.167969 117.039062 118.820312 117.914062 118.472656 C 118.339844 118.304688 118.765625 118.140625 119.1875 117.96875 C 119.53125 117.828125 119.867188 117.679688 120.207031 117.535156 C 120.855469 117.261719 121.507812 116.984375 122.160156 116.707031 C 123.027344 116.339844 123.894531 115.96875 124.761719 115.601562 C 125.183594 115.421875 125.605469 115.246094 126.023438 115.066406 C 126.320312 114.9375 126.613281 114.800781 126.910156 114.667969 C 127.488281 114.410156 128.066406 114.148438 128.644531 113.890625 C 129.570312 113.472656 130.5 113.054688 131.425781 112.640625 C 131.734375 112.5 132.042969 112.363281 132.351562 112.222656 C 132.515625 112.152344 132.675781 112.082031 132.835938 112.003906 C 133.210938 111.828125 133.578125 111.644531 133.949219 111.460938 C 134.691406 111.101562 135.433594 110.738281 136.175781 110.375 C 136.917969 110.011719 137.660156 109.652344 138.402344 109.289062 C 138.773438 109.109375 139.148438 108.929688 139.515625 108.746094 C 139.765625 108.617188 140.011719 108.484375 140.261719 108.355469 C 140.734375 108.105469 141.203125 107.859375 141.671875 107.613281 C 143.113281 106.855469 144.550781 106.101562 145.992188 105.347656 C 146.554688 105.050781 147.113281 104.75 147.675781 104.453125 C 148.707031 103.90625 149.738281 103.359375 150.769531 102.8125 C 151.210938 102.574219 151.65625 102.339844 152.097656 102.105469 C 152.308594 101.992188 152.515625 101.878906 152.726562 101.769531 C 153.078125 101.589844 153.441406 101.421875 153.796875 101.246094 C 154.484375 100.90625 155.175781 100.566406 155.863281 100.230469 C 156.65625 99.839844 157.449219 99.449219 158.246094 99.058594 C 158.628906 98.871094 159.011719 98.679688 159.398438 98.492188 C 159.515625 98.4375 159.636719 98.382812 159.757812 98.328125 C 159.988281 98.226562 160.214844 98.125 160.445312 98.019531 C 161.117188 97.71875 161.785156 97.414062 162.457031 97.113281 C 163.289062 96.734375 164.121094 96.359375 164.957031 95.984375 C 165.371094 95.796875 165.785156 95.601562 166.203125 95.417969 C 166.796875 95.160156 167.398438 94.914062 167.992188 94.660156 C 169.1875 94.152344 170.378906 93.644531 171.574219 93.136719 L 172.832031 92.601562 C 172.902344 92.570312 172.96875 92.542969 173.039062 92.515625 C 173.140625 92.472656 173.214844 92.449219 173.300781 92.363281 C 173.359375 92.308594 173.402344 92.242188 173.433594 92.167969 C 173.480469 92.042969 173.472656 91.890625 173.480469 91.757812 C 173.480469 91.734375 173.480469 91.707031 173.484375 91.679688 C 173.484375 91.628906 173.488281 91.578125 173.488281 91.527344 C 173.5 91.1875 173.515625 90.847656 173.527344 90.511719 C 173.574219 89.3125 173.621094 88.117188 173.667969 86.921875 C 173.6875 86.425781 173.707031 85.933594 173.726562 85.4375 C 173.738281 85.179688 173.742188 84.917969 173.757812 84.65625 C 173.78125 84.292969 173.816406 83.929688 173.84375 83.566406 C 173.898438 82.890625 173.949219 82.210938 174.003906 81.535156 C 174.144531 79.769531 174.277344 77.996094 174.429688 76.230469 C 174.519531 75.164062 174.609375 74.097656 174.699219 73.03125 C 174.71875 72.824219 174.734375 72.613281 174.753906 72.40625 C 174.757812 72.328125 174.765625 72.25 174.773438 72.171875 C 174.773438 72.140625 174.78125 72.09375 174.78125 72.058594 C 174.78125 71.96875 174.777344 71.878906 174.765625 71.792969 C 174.761719 71.761719 174.757812 71.730469 174.75 71.699219 C 174.738281 71.628906 174.722656 71.558594 174.699219 71.488281 C 174.585938 71.121094 174.378906 70.816406 174.074219 70.574219 C 173.972656 70.496094 173.863281 70.425781 173.75 70.367188 C 173.722656 70.351562 173.6875 70.339844 173.660156 70.324219 C 173.445312 70.210938 173.234375 70.097656 173.019531 69.980469 C 172.734375 69.828125 172.445312 69.671875 172.160156 69.519531 C 172.003906 69.433594 171.847656 69.347656 171.691406 69.265625 C 171.191406 69.011719 170.6875 68.769531 170.183594 68.519531 C 169.035156 67.949219 167.882812 67.382812 166.734375 66.8125 C 166.351562 66.621094 165.96875 66.433594 165.585938 66.242188 C 165.398438 66.152344 165.214844 66.054688 165.027344 65.96875 C 164.828125 65.875 164.625 65.785156 164.425781 65.695312 C 164.019531 65.515625 163.617188 65.332031 163.214844 65.152344 C 162.007812 64.605469 160.796875 64.058594 159.589844 63.515625 C 159.148438 63.316406 158.707031 63.109375 158.261719 62.914062 C 157.921875 62.765625 157.582031 62.625 157.242188 62.484375 C 156.578125 62.203125 155.914062 61.917969 155.25 61.636719 C 154.394531 61.277344 153.539062 60.914062 152.6875 60.550781 C 152.402344 60.429688 152.117188 60.308594 151.832031 60.1875 C 151.683594 60.125 151.535156 60.0625 151.382812 60 C 151.027344 59.855469 150.671875 59.71875 150.3125 59.578125 C 149.628906 59.308594 148.941406 59.039062 148.257812 58.769531 C 147.40625 58.433594 146.554688 58.097656 145.707031 57.765625 C 145.429688 57.65625 145.15625 57.550781 144.882812 57.441406 C 144.746094 57.386719 144.609375 57.332031 144.472656 57.277344 C 144.152344 57.160156 143.832031 57.050781 143.511719 56.9375 C 142.898438 56.722656 142.285156 56.503906 141.671875 56.289062 C 140.726562 55.953125 139.78125 55.617188 138.835938 55.28125 C 138.359375 55.113281 137.886719 54.941406 137.414062 54.777344 C 135.777344 54.214844 134.140625 53.660156 132.503906 53.101562 C 132.03125 52.941406 131.554688 52.777344 131.078125 52.613281 C 130.839844 52.535156 130.601562 52.457031 130.367188 52.371094 C 129.949219 52.222656 129.535156 52.066406 129.117188 51.914062 C 128.289062 51.609375 127.457031 51.304688 126.625 51 C 125.90625 50.734375 125.183594 50.472656 124.464844 50.207031 C 124.105469 50.074219 123.742188 49.945312 123.382812 49.808594 C 123.246094 49.757812 123.109375 49.699219 122.972656 49.644531 C 122.714844 49.539062 122.453125 49.433594 122.195312 49.332031 C 121.402344 49.007812 120.609375 48.6875 119.816406 48.367188 C 119.109375 48.082031 118.398438 47.792969 117.6875 47.503906 C 117.414062 47.394531 117.140625 47.285156 116.867188 47.171875 C 116.730469 47.117188 116.59375 47.066406 116.457031 47.007812 C 116.296875 46.9375 116.132812 46.863281 115.972656 46.792969 L 111.761719 44.945312 C 111.292969 44.738281 110.820312 44.53125 110.347656 44.328125 C 110.117188 44.226562 109.886719 44.128906 109.660156 44.023438 C 109.5 43.949219 109.339844 43.867188 109.183594 43.789062 C 108.863281 43.632812 108.546875 43.476562 108.230469 43.320312 C 107.304688 42.867188 106.378906 42.410156 105.453125 41.953125 L 99.335938 38.945312 C 98.253906 38.410156 97.167969 37.875 96.082031 37.34375 C 94.53125 36.585938 92.980469 35.832031 91.429688 35.074219 L 90.832031 34.785156 C 90.644531 34.691406 90.46875 34.59375 90.257812 34.546875 C 90.207031 34.535156 90.152344 34.527344 90.101562 34.523438 C 90.039062 34.515625 89.972656 34.511719 89.910156 34.511719 C 89.835938 34.511719 89.757812 34.519531 89.683594 34.53125 C 89.503906 34.558594 89.332031 34.617188 89.175781 34.703125 C 89.089844 34.753906 89.011719 34.808594 88.9375 34.871094 C 88.800781 34.984375 88.6875 35.117188 88.601562 35.269531 C 88.535156 35.382812 88.484375 35.503906 88.445312 35.632812 C 88.433594 35.679688 88.421875 35.726562 88.414062 35.777344 C 88.398438 35.886719 88.386719 36 88.386719 36.117188 C 88.378906 36.269531 88.375 36.421875 88.367188 36.574219 C 88.304688 38 88.242188 39.429688 88.183594 40.859375 C 87.921875 47.035156 88.183594 40.859375 87.398438 59.386719 C 87.398438 59.40625 87.402344 59.425781 87.402344 59.449219 C 87.402344 59.457031 87.402344 59.464844 87.402344 59.472656 C 87.425781 60.140625 87.675781 60.710938 88.15625 61.179688 C 88.160156 61.183594 88.164062 61.1875 88.171875 61.195312 C 88.46875 61.480469 88.816406 61.683594 89.210938 61.796875 C 103.046875 66.523438 98.816406 65.078125 103.617188 66.71875 C 105.773438 67.453125 107.929688 68.191406 110.089844 68.925781 C 111.242188 69.316406 112.398438 69.703125 113.550781 70.089844 C 115.839844 70.859375 118.132812 71.628906 120.421875 72.402344 C 121.265625 72.683594 122.105469 72.964844 122.945312 73.25 C 123.363281 73.386719 123.78125 73.527344 124.195312 73.667969 C 124.363281 73.726562 124.53125 73.792969 124.699219 73.851562 C 124.996094 73.960938 125.292969 74.070312 125.59375 74.175781 C 126.507812 74.511719 127.421875 74.84375 128.335938 75.179688 C 128.976562 75.410156 129.621094 75.644531 130.261719 75.878906 C 130.574219 75.992188 130.890625 76.105469 131.203125 76.222656 C 131.546875 76.351562 131.882812 76.496094 132.222656 76.628906 C 132.898438 76.898438 133.574219 77.167969 134.25 77.4375 C 135.109375 77.777344 135.964844 78.121094 136.824219 78.460938 C 137.261719 78.636719 137.707031 78.808594 138.144531 78.988281 C 138.476562 79.128906 138.8125 79.273438 139.144531 79.414062 L 141.125 80.253906 C 141.96875 80.613281 142.8125 80.972656 143.65625 81.328125 C 144.1875 81.554688 144.71875 81.777344 145.242188 82.015625 C 144.667969 82.199219 144.09375 82.382812 143.519531 82.566406 C 143.324219 82.628906 143.132812 82.691406 142.941406 82.75 C 142.652344 82.84375 142.359375 82.925781 142.066406 83.011719 C 141.542969 83.167969 141.019531 83.324219 140.496094 83.480469 C 138.941406 83.941406 137.390625 84.402344 135.835938 84.863281 C 135.410156 84.988281 134.988281 85.128906 134.5625 85.261719 C 133.75 85.515625 132.941406 85.769531 132.132812 86.027344 C 131.359375 86.269531 130.585938 86.511719 129.816406 86.753906 C 129.429688 86.875 129.039062 86.988281 128.65625 87.117188 C 128.3125 87.230469 127.96875 87.359375 127.628906 87.480469 C 126.980469 87.707031 126.332031 87.933594 125.6875 88.164062 C 124.773438 88.484375 123.859375 88.808594 122.941406 89.128906 C 122.503906 89.285156 122.066406 89.433594 121.628906 89.59375 C 121.175781 89.761719 120.722656 89.9375 120.273438 90.109375 C 119.367188 90.457031 118.460938 90.800781 117.554688 91.144531 C 116.914062 91.390625 116.273438 91.632812 115.628906 91.878906 C 115.308594 92 114.984375 92.117188 114.667969 92.242188 C 114.234375 92.414062 113.808594 92.59375 113.378906 92.773438 C 112.519531 93.125 111.660156 93.476562 110.800781 93.828125 C 110.128906 94.105469 109.457031 94.378906 108.785156 94.65625 C 108.558594 94.746094 108.335938 94.839844 108.109375 94.929688 C 107.996094 94.976562 107.886719 95.019531 107.773438 95.070312 C 107.402344 95.230469 107.039062 95.402344 106.667969 95.566406 C 105.949219 95.894531 105.230469 96.214844 104.511719 96.539062 C 103.71875 96.898438 102.925781 97.253906 102.132812 97.613281 C 101.875 97.730469 101.617188 97.84375 101.359375 97.960938 C 101.195312 98.035156 101.027344 98.109375 100.863281 98.191406 C 99.40625 98.898438 97.949219 99.605469 96.488281 100.3125 C 95.761719 100.664062 95.03125 101.019531 94.300781 101.371094 C 94.011719 101.511719 93.714844 101.644531 93.421875 101.78125 C 92.886719 102.027344 92.355469 102.273438 91.824219 102.519531 C 91.585938 102.628906 91.347656 102.738281 91.105469 102.851562 C 90.90625 102.945312 90.703125 103.035156 90.503906 103.128906 C 90.261719 103.242188 90.023438 103.351562 89.785156 103.460938 C 89.628906 103.535156 89.453125 103.601562 89.316406 103.710938 C 89.109375 103.878906 88.992188 104.097656 88.960938 104.363281 C 88.949219 104.472656 88.953125 104.578125 88.964844 104.6875 C 88.976562 104.84375 88.984375 104.996094 88.996094 105.148438 C 89.027344 105.636719 89.0625 106.128906 89.09375 106.617188 C 89.105469 106.785156 89.105469 106.953125 89.109375 107.125 C 89.117188 107.367188 89.125 107.613281 89.128906 107.859375 C 89.148438 108.59375 89.167969 109.328125 89.1875 110.0625 C 89.214844 110.984375 89.238281 111.902344 89.261719 112.820312 C 89.273438 113.265625 89.289062 113.710938 89.296875 114.152344 C 89.300781 114.324219 89.296875 114.492188 89.296875 114.660156 C 89.296875 114.980469 89.296875 115.300781 89.300781 115.625 C 89.300781 116.574219 89.300781 117.523438 89.300781 118.472656 C 89.300781 119.179688 89.300781 119.882812 89.300781 120.585938 C 89.300781 120.925781 89.304688 121.261719 89.300781 121.597656 C 89.300781 121.921875 89.285156 122.242188 89.28125 122.5625 C 89.246094 124.019531 89.210938 125.472656 89.179688 126.929688 C 89.175781 127.097656 89.171875 127.265625 89.167969 127.433594 C 89.164062 127.554688 89.164062 127.679688 89.160156 127.800781 C 89.15625 127.960938 89.148438 128.097656 89.210938 128.257812 C 89.226562 128.289062 89.242188 128.320312 89.257812 128.351562 C 89.28125 128.386719 89.304688 128.421875 89.328125 128.453125 C 89.359375 128.488281 89.390625 128.523438 89.425781 128.550781 C 89.460938 128.582031 89.503906 128.609375 89.542969 128.632812 C 89.585938 128.65625 89.628906 128.675781 89.671875 128.691406 C 89.714844 128.707031 89.757812 128.71875 89.800781 128.722656 C 89.847656 128.734375 89.894531 128.734375 89.945312 128.734375 Z M 90.640625 126.8125 C 90.636719 126.683594 90.632812 126.554688 90.628906 126.421875 C 90.605469 125.398438 90.582031 124.371094 90.558594 123.34375 C 90.550781 122.960938 90.539062 122.578125 90.53125 122.195312 C 90.527344 121.996094 90.519531 121.796875 90.519531 121.597656 C 90.515625 121.152344 90.519531 120.710938 90.519531 120.265625 C 90.519531 119.378906 90.519531 118.488281 90.519531 117.601562 C 90.519531 116.835938 90.519531 116.070312 90.523438 115.300781 C 90.523438 114.917969 90.515625 114.535156 90.523438 114.152344 C 90.535156 113.433594 90.5625 112.714844 90.582031 111.996094 C 90.617188 110.554688 90.65625 109.113281 90.695312 107.675781 C 90.703125 107.460938 90.707031 107.246094 90.710938 107.03125 C 90.714844 106.925781 90.714844 106.816406 90.722656 106.710938 C 90.742188 106.3125 90.773438 105.914062 90.800781 105.515625 C 90.808594 105.402344 90.816406 105.289062 90.824219 105.175781 C 90.863281 105.164062 90.90625 105.152344 90.949219 105.136719 C 91.375 105.003906 91.800781 104.871094 92.226562 104.738281 C 93.210938 104.433594 94.195312 104.121094 95.179688 103.820312 C 95.492188 103.722656 95.800781 103.636719 96.113281 103.546875 C 97.511719 103.136719 98.914062 102.730469 100.3125 102.320312 C 100.996094 102.121094 101.675781 101.929688 102.355469 101.726562 C 102.566406 101.660156 102.78125 101.589844 102.992188 101.523438 C 103.375 101.398438 103.761719 101.273438 104.144531 101.148438 C 105.320312 100.769531 106.492188 100.394531 107.667969 100.015625 C 108.070312 99.886719 108.476562 99.753906 108.878906 99.625 C 109.074219 99.5625 109.265625 99.503906 109.457031 99.4375 C 109.589844 99.394531 109.722656 99.34375 109.855469 99.296875 C 110.101562 99.207031 110.351562 99.117188 110.597656 99.027344 C 111.335938 98.761719 112.078125 98.492188 112.820312 98.226562 L 115.269531 97.339844 C 115.667969 97.199219 116.066406 97.058594 116.464844 96.910156 C 116.804688 96.78125 117.144531 96.644531 117.480469 96.515625 C 118.160156 96.25 118.835938 95.984375 119.511719 95.722656 C 120.378906 95.386719 121.242188 95.046875 122.109375 94.710938 C 122.539062 94.542969 122.976562 94.378906 123.40625 94.203125 C 123.855469 94.023438 124.300781 93.832031 124.746094 93.644531 C 125.625 93.277344 126.5 92.910156 127.375 92.542969 C 128.023438 92.269531 128.675781 92 129.328125 91.726562 C 129.644531 91.59375 129.964844 91.464844 130.28125 91.328125 C 130.632812 91.171875 130.976562 91.007812 131.328125 90.847656 C 131.988281 90.542969 132.648438 90.238281 133.3125 89.933594 C 134.140625 89.554688 134.964844 89.171875 135.792969 88.792969 C 136.214844 88.597656 136.640625 88.40625 137.0625 88.210938 C 137.777344 87.875 138.484375 87.527344 139.199219 87.1875 C 140.21875 86.699219 141.242188 86.207031 142.265625 85.71875 L 143.308594 85.21875 C 143.472656 85.140625 143.632812 85.058594 143.800781 84.984375 C 144.09375 84.847656 144.390625 84.714844 144.683594 84.582031 L 146.34375 83.832031 C 146.507812 83.757812 146.671875 83.683594 146.839844 83.605469 C 146.984375 83.539062 147.132812 83.472656 147.28125 83.40625 C 147.390625 83.355469 147.503906 83.304688 147.613281 83.257812 C 147.761719 83.191406 147.90625 83.121094 148.054688 83.054688 C 148.09375 83.039062 148.136719 83.023438 148.175781 83.003906 C 148.195312 82.996094 148.214844 82.984375 148.234375 82.972656 C 148.34375 82.875 148.566406 82.8125 148.558594 82.664062 C 148.523438 82.191406 148.261719 81.761719 148.117188 81.3125 C 148.117188 81.308594 148.074219 81.296875 148.074219 81.296875 C 148.066406 81.292969 148.0625 81.292969 148.058594 81.292969 C 148.011719 81.277344 147.964844 81.261719 147.917969 81.246094 C 147.726562 81.183594 147.53125 81.117188 147.339844 81.054688 C 146.941406 80.925781 146.542969 80.792969 146.148438 80.664062 C 145.9375 80.59375 145.730469 80.53125 145.523438 80.457031 C 145.328125 80.390625 145.136719 80.316406 144.941406 80.246094 C 143.519531 79.730469 142.101562 79.214844 140.679688 78.699219 C 139.972656 78.441406 139.265625 78.191406 138.5625 77.929688 C 138.386719 77.863281 138.210938 77.792969 138.039062 77.726562 C 137.726562 77.605469 137.414062 77.480469 137.101562 77.359375 C 136.171875 77 135.242188 76.636719 134.316406 76.277344 C 133.714844 76.046875 133.117188 75.8125 132.519531 75.578125 C 132.214844 75.460938 131.902344 75.34375 131.597656 75.21875 C 131.167969 75.042969 130.738281 74.859375 130.3125 74.675781 C 129.449219 74.308594 128.585938 73.945312 127.722656 73.578125 C 127.054688 73.296875 126.386719 73.011719 125.71875 72.730469 C 125.390625 72.589844 125.058594 72.457031 124.730469 72.3125 C 124.292969 72.117188 123.855469 71.914062 123.417969 71.714844 C 122.554688 71.324219 121.691406 70.933594 120.828125 70.542969 C 118.21875 69.359375 115.609375 68.175781 113 66.988281 C 109.957031 65.609375 106.90625 64.25 103.855469 62.882812 C 100.023438 61.167969 100.585938 61.417969 92.351562 57.734375 C 91.917969 47.453125 91.957031 48.460938 91.761719 43.828125 C 91.691406 42.09375 91.617188 40.359375 91.542969 38.625 C 91.539062 38.503906 91.53125 38.386719 91.527344 38.265625 C 92.714844 38.71875 93.90625 39.171875 95.09375 39.625 C 96.429688 40.136719 97.769531 40.636719 99.109375 41.140625 C 101.621094 42.089844 104.132812 43.035156 106.644531 43.980469 C 107.222656 44.199219 107.800781 44.417969 108.382812 44.636719 C 108.574219 44.710938 108.769531 44.78125 108.960938 44.855469 C 109.058594 44.890625 109.15625 44.925781 109.25 44.964844 C 109.375 45.015625 109.496094 45.070312 109.617188 45.121094 C 109.835938 45.214844 110.050781 45.308594 110.265625 45.402344 C 110.917969 45.679688 111.566406 45.957031 112.21875 46.234375 C 113.082031 46.605469 113.949219 46.976562 114.816406 47.347656 C 115.238281 47.527344 115.660156 47.703125 116.078125 47.886719 C 116.402344 48.03125 116.71875 48.183594 117.039062 48.332031 C 117.640625 48.609375 118.242188 48.890625 118.84375 49.167969 C 119.742188 49.582031 120.636719 49.996094 121.535156 50.410156 C 121.828125 50.546875 122.121094 50.683594 122.414062 50.820312 C 122.5625 50.890625 122.710938 50.953125 122.859375 51.023438 C 123.203125 51.191406 123.542969 51.371094 123.886719 51.542969 C 124.570312 51.886719 125.257812 52.230469 125.941406 52.578125 C 126.730469 52.976562 127.523438 53.371094 128.316406 53.769531 C 128.710938 53.96875 129.105469 54.164062 129.5 54.367188 C 129.722656 54.484375 129.945312 54.605469 130.164062 54.722656 C 130.609375 54.957031 131.054688 55.195312 131.496094 55.429688 C 133.023438 56.242188 134.546875 57.058594 136.078125 57.867188 C 136.507812 58.09375 136.941406 58.3125 137.375 58.539062 C 138.226562 58.980469 139.078125 59.421875 139.933594 59.863281 L 141.820312 60.839844 C 142.121094 60.992188 142.421875 61.15625 142.726562 61.304688 C 143.042969 61.464844 143.363281 61.609375 143.683594 61.761719 C 144.296875 62.050781 144.910156 62.34375 145.523438 62.632812 C 146.402344 63.050781 147.28125 63.46875 148.15625 63.882812 C 148.585938 64.085938 149.007812 64.292969 149.4375 64.488281 C 149.8125 64.664062 150.191406 64.824219 150.566406 64.992188 C 151.28125 65.308594 151.996094 65.625 152.710938 65.941406 C 153.503906 66.292969 154.300781 66.644531 155.09375 66.996094 C 155.484375 67.167969 155.875 67.347656 156.265625 67.515625 C 156.824219 67.753906 157.382812 67.980469 157.941406 68.210938 C 159.042969 68.667969 160.144531 69.128906 161.246094 69.585938 C 161.667969 69.761719 162.089844 69.9375 162.511719 70.113281 C 162.714844 70.199219 162.917969 70.285156 163.121094 70.367188 C 163.328125 70.449219 163.539062 70.523438 163.746094 70.597656 C 164.144531 70.75 164.546875 70.898438 164.945312 71.046875 C 166.148438 71.5 167.347656 71.949219 168.550781 72.398438 C 169.0625 72.589844 169.570312 72.785156 170.085938 72.972656 C 170.195312 73.015625 170.308594 73.050781 170.421875 73.085938 C 170.617188 73.152344 170.8125 73.21875 171.007812 73.285156 C 171.085938 73.3125 171.164062 73.335938 171.242188 73.363281 C 171.253906 73.511719 171.265625 73.660156 171.277344 73.808594 C 171.378906 74.980469 171.484375 76.152344 171.574219 77.324219 C 171.703125 78.960938 171.835938 80.601562 171.964844 82.238281 C 172.007812 82.785156 172.050781 83.332031 172.09375 83.878906 C 172.113281 84.136719 172.136719 84.398438 172.15625 84.65625 C 172.171875 84.945312 172.175781 85.230469 172.1875 85.515625 C 172.210938 86.035156 172.230469 86.558594 172.25 87.078125 C 172.292969 88.246094 172.339844 89.417969 172.386719 90.589844 C 172.398438 90.925781 172.414062 91.265625 172.425781 91.601562 C 172.425781 91.625 172.429688 91.644531 172.429688 91.667969 C 172.308594 91.722656 172.1875 91.773438 172.066406 91.828125 C 171.632812 92.019531 171.203125 92.210938 170.769531 92.398438 C 169.476562 92.972656 168.183594 93.542969 166.890625 94.113281 C 166.539062 94.269531 166.191406 94.425781 165.839844 94.578125 C 165.421875 94.757812 164.996094 94.929688 164.574219 95.105469 L 162.167969 96.105469 C 161.445312 96.40625 160.722656 96.703125 160.003906 97.003906 C 159.773438 97.097656 159.539062 97.195312 159.308594 97.289062 C 159.1875 97.339844 159.066406 97.394531 158.941406 97.445312 C 158.503906 97.613281 158.058594 97.777344 157.617188 97.941406 C 156.761719 98.265625 155.90625 98.589844 155.050781 98.914062 C 154.359375 99.175781 153.671875 99.433594 152.980469 99.695312 C 152.652344 99.820312 152.320312 99.949219 151.988281 100.070312 C 151.625 100.199219 151.261719 100.320312 150.898438 100.441406 C 150.183594 100.6875 149.472656 100.933594 148.757812 101.175781 C 147.484375 101.613281 146.214844 102.046875 144.941406 102.484375 C 143.726562 102.902344 142.515625 103.328125 141.300781 103.75 C 140.53125 104.015625 139.765625 104.28125 138.996094 104.550781 C 138.621094 104.679688 138.242188 104.804688 137.867188 104.941406 C 137.480469 105.085938 137.097656 105.238281 136.710938 105.382812 L 134.394531 106.265625 C 133.621094 106.558594 132.851562 106.851562 132.078125 107.144531 C 131.691406 107.292969 131.304688 107.4375 130.921875 107.585938 C 130.785156 107.640625 130.648438 107.699219 130.515625 107.757812 C 130.242188 107.871094 129.96875 107.984375 129.699219 108.097656 C 128.882812 108.4375 128.066406 108.777344 127.25 109.121094 C 126.53125 109.421875 125.8125 109.722656 125.089844 110.023438 C 124.738281 110.171875 124.378906 110.3125 124.03125 110.464844 C 123.582031 110.660156 123.140625 110.859375 122.695312 111.054688 C 121.820312 111.441406 120.945312 111.828125 120.066406 112.21875 C 119.433594 112.496094 118.800781 112.777344 118.167969 113.058594 C 117.859375 113.195312 117.546875 113.328125 117.238281 113.46875 C 117 113.578125 116.757812 113.695312 116.519531 113.808594 L 115.078125 114.488281 L 110.839844 116.488281 C 110.734375 116.539062 110.628906 116.589844 110.523438 116.640625 C 110.390625 116.707031 110.257812 116.773438 110.128906 116.84375 C 109.902344 116.957031 109.679688 117.070312 109.457031 117.1875 C 108.839844 117.503906 108.222656 117.820312 107.605469 118.136719 C 106.777344 118.5625 105.953125 118.988281 105.125 119.414062 C 104.703125 119.628906 104.28125 119.84375 103.863281 120.0625 C 102.988281 120.519531 102.113281 120.984375 101.234375 121.445312 C 100.386719 121.890625 99.535156 122.339844 98.6875 122.785156 C 98.21875 123.035156 97.75 123.289062 97.277344 123.53125 C 97.105469 123.617188 96.933594 123.699219 96.761719 123.785156 C 95.175781 124.570312 93.589844 125.355469 92.003906 126.140625 C 91.699219 126.292969 91.394531 126.441406 91.089844 126.59375 C 90.941406 126.667969 90.789062 126.742188 90.640625 126.8125 Z M 171.152344 72.328125 C 171.152344 72.316406 171.144531 72.300781 171.144531 72.289062 C 171.132812 72.214844 171.128906 72.144531 171.128906 72.070312 C 171.132812 72.078125 171.132812 72.085938 171.132812 72.09375 C 171.136719 72.121094 171.136719 72.144531 171.140625 72.171875 C 171.140625 72.199219 171.144531 72.222656 171.148438 72.25 C 171.148438 72.277344 171.152344 72.304688 171.152344 72.328125 Z M 171.152344 72.328125 " fill-opacity="1" fill-rule="nonzero"/></g></svg>