<svg xmlns="http://www.w3.org/2000/svg" xmlns:xlink="http://www.w3.org/1999/xlink" width="500" zoomAndPan="magnify" viewBox="0 0 375 374.999991" height="500" preserveAspectRatio="xMidYMid meet" version="1.0"><defs><g/><clipPath id="3ae57b288d"><path d="M 99.734375 85.988281 L 187.738281 85.988281 L 187.738281 180.613281 L 99.734375 180.613281 Z M 99.734375 85.988281 " clip-rule="nonzero"/></clipPath><clipPath id="239f61cd08"><path d="M 187.261719 120.492188 L 275.265625 120.492188 L 275.265625 215.117188 L 187.261719 215.117188 Z M 187.261719 120.492188 " clip-rule="nonzero"/></clipPath></defs><rect x="-37.5" width="450" fill="#ffffff" y="-37.499999" height="449.999989" fill-opacity="1"/><rect x="-37.5" width="450" fill="#000000" y="-37.499999" height="449.999989" fill-opacity="1"/><g fill="#007bff" fill-opacity="1"><g transform="translate(57.187108, 274.064922)"><g><path d="M 19.859375 0.75 C 14.359375 0.75 10.269531 -1.191406 7.59375 -5.078125 C 4.925781 -8.972656 3.59375 -14.5 3.59375 -21.65625 C 3.59375 -28.8125 4.925781 -34.332031 7.59375 -38.21875 C 10.269531 -42.101562 14.359375 -44.046875 19.859375 -44.046875 C 21.960938 -44.046875 23.789062 -43.765625 25.34375 -43.203125 C 26.894531 -42.648438 28.226562 -41.890625 29.34375 -40.921875 C 30.457031 -39.953125 31.394531 -38.8125 32.15625 -37.5 C 32.925781 -36.195312 33.5625 -34.800781 34.0625 -33.3125 L 27.796875 -31.203125 C 27.460938 -32.203125 27.085938 -33.132812 26.671875 -34 C 26.265625 -34.863281 25.75 -35.609375 25.125 -36.234375 C 24.507812 -36.859375 23.773438 -37.351562 22.921875 -37.71875 C 22.078125 -38.09375 21.035156 -38.28125 19.796875 -38.28125 C 16.734375 -38.28125 14.5 -37.109375 13.09375 -34.765625 C 11.6875 -32.429688 10.984375 -29.28125 10.984375 -25.3125 L 10.984375 -18 C 10.984375 -14.019531 11.6875 -10.863281 13.09375 -8.53125 C 14.5 -6.195312 16.734375 -5.03125 19.796875 -5.03125 C 21.035156 -5.03125 22.078125 -5.210938 22.921875 -5.578125 C 23.773438 -5.953125 24.507812 -6.445312 25.125 -7.0625 C 25.75 -7.6875 26.265625 -8.429688 26.671875 -9.296875 C 27.085938 -10.171875 27.460938 -11.101562 27.796875 -12.09375 L 34.0625 -9.984375 C 33.5625 -8.492188 32.925781 -7.097656 32.15625 -5.796875 C 31.394531 -4.492188 30.457031 -3.359375 29.34375 -2.390625 C 28.226562 -1.421875 26.894531 -0.65625 25.34375 -0.09375 C 23.789062 0.46875 21.960938 0.75 19.859375 0.75 Z M 19.859375 0.75 "/></g></g></g><g fill="#007bff" fill-opacity="1"><g transform="translate(94.414247, 274.064922)"><g><path d="M 18.609375 0.75 C 16.253906 0.75 14.132812 0.359375 12.25 -0.421875 C 10.375 -1.210938 8.78125 -2.332031 7.46875 -3.78125 C 6.164062 -5.226562 5.160156 -6.984375 4.453125 -9.046875 C 3.753906 -11.117188 3.40625 -13.441406 3.40625 -16.015625 C 3.40625 -18.578125 3.753906 -20.890625 4.453125 -22.953125 C 5.160156 -25.023438 6.164062 -26.785156 7.46875 -28.234375 C 8.78125 -29.679688 10.375 -30.796875 12.25 -31.578125 C 14.132812 -32.367188 16.253906 -32.765625 18.609375 -32.765625 C 20.972656 -32.765625 23.09375 -32.367188 24.96875 -31.578125 C 26.851562 -30.796875 28.445312 -29.679688 29.75 -28.234375 C 31.050781 -26.785156 32.050781 -25.023438 32.75 -22.953125 C 33.457031 -20.890625 33.8125 -18.578125 33.8125 -16.015625 C 33.8125 -13.441406 33.457031 -11.117188 32.75 -9.046875 C 32.050781 -6.984375 31.050781 -5.226562 29.75 -3.78125 C 28.445312 -2.332031 26.851562 -1.210938 24.96875 -0.421875 C 23.09375 0.359375 20.972656 0.75 18.609375 0.75 Z M 18.609375 -4.59375 C 21.097656 -4.59375 23.070312 -5.347656 24.53125 -6.859375 C 26 -8.367188 26.734375 -10.613281 26.734375 -13.59375 L 26.734375 -18.421875 C 26.734375 -21.398438 26 -23.644531 24.53125 -25.15625 C 23.070312 -26.664062 21.097656 -27.421875 18.609375 -27.421875 C 16.128906 -27.421875 14.15625 -26.664062 12.6875 -25.15625 C 11.21875 -23.644531 10.484375 -21.398438 10.484375 -18.421875 L 10.484375 -13.59375 C 10.484375 -10.613281 11.21875 -8.367188 12.6875 -6.859375 C 14.15625 -5.347656 16.128906 -4.59375 18.609375 -4.59375 Z M 18.609375 -4.59375 "/></g></g></g><g fill="#007bff" fill-opacity="1"><g transform="translate(131.641386, 274.064922)"><g><path d="M 25.5625 -5.453125 L 25.1875 -5.453125 C 24.238281 -3.515625 22.976562 -1.992188 21.40625 -0.890625 C 19.832031 0.203125 17.867188 0.75 15.515625 0.75 C 11.742188 0.75 8.742188 -0.65625 6.515625 -3.46875 C 4.285156 -6.28125 3.171875 -10.460938 3.171875 -16.015625 C 3.171875 -21.554688 4.285156 -25.734375 6.515625 -28.546875 C 8.742188 -31.359375 11.742188 -32.765625 15.515625 -32.765625 C 17.867188 -32.765625 19.832031 -32.210938 21.40625 -31.109375 C 22.976562 -30.015625 24.238281 -28.5 25.1875 -26.5625 L 25.5625 -26.5625 L 25.5625 -45.921875 L 32.328125 -45.921875 L 32.328125 0 L 25.5625 0 Z M 18.296875 -4.78125 C 19.296875 -4.78125 20.226562 -4.898438 21.09375 -5.140625 C 21.96875 -5.390625 22.734375 -5.765625 23.390625 -6.265625 C 24.054688 -6.765625 24.582031 -7.375 24.96875 -8.09375 C 25.363281 -8.820312 25.5625 -9.679688 25.5625 -10.671875 L 25.5625 -21.34375 C 25.5625 -22.332031 25.363281 -23.1875 24.96875 -23.90625 C 24.582031 -24.632812 24.054688 -25.25 23.390625 -25.75 C 22.734375 -26.25 21.96875 -26.617188 21.09375 -26.859375 C 20.226562 -27.109375 19.296875 -27.234375 18.296875 -27.234375 C 15.734375 -27.234375 13.757812 -26.445312 12.375 -24.875 C 10.988281 -23.300781 10.296875 -21.210938 10.296875 -18.609375 L 10.296875 -13.40625 C 10.296875 -10.800781 10.988281 -8.710938 12.375 -7.140625 C 13.757812 -5.566406 15.734375 -4.78125 18.296875 -4.78125 Z M 18.296875 -4.78125 "/></g></g></g><g fill="#007bff" fill-opacity="1"><g transform="translate(168.868525, 274.064922)"><g><path d="M 19.296875 0.75 C 16.859375 0.75 14.664062 0.359375 12.71875 -0.421875 C 10.769531 -1.210938 9.132812 -2.332031 7.8125 -3.78125 C 6.488281 -5.226562 5.472656 -6.972656 4.765625 -9.015625 C 4.066406 -11.066406 3.71875 -13.378906 3.71875 -15.953125 C 3.71875 -18.515625 4.078125 -20.828125 4.796875 -22.890625 C 5.523438 -24.960938 6.539062 -26.734375 7.84375 -28.203125 C 9.144531 -29.671875 10.726562 -30.796875 12.59375 -31.578125 C 14.457031 -32.367188 16.523438 -32.765625 18.796875 -32.765625 C 21.035156 -32.765625 23.0625 -32.378906 24.875 -31.609375 C 26.695312 -30.847656 28.25 -29.765625 29.53125 -28.359375 C 30.8125 -26.953125 31.789062 -25.273438 32.46875 -23.328125 C 33.15625 -21.378906 33.5 -19.226562 33.5 -16.875 L 33.5 -14.328125 L 10.546875 -14.328125 L 10.546875 -13.28125 C 10.546875 -10.757812 11.332031 -8.703125 12.90625 -7.109375 C 14.476562 -5.515625 16.648438 -4.71875 19.421875 -4.71875 C 21.484375 -4.71875 23.25 -5.160156 24.71875 -6.046875 C 26.1875 -6.941406 27.378906 -8.132812 28.296875 -9.625 L 32.515625 -5.890625 C 31.441406 -4.035156 29.796875 -2.460938 27.578125 -1.171875 C 25.367188 0.109375 22.609375 0.75 19.296875 0.75 Z M 18.796875 -27.609375 C 17.597656 -27.609375 16.488281 -27.398438 15.46875 -26.984375 C 14.457031 -26.578125 13.585938 -25.988281 12.859375 -25.21875 C 12.140625 -24.457031 11.570312 -23.554688 11.15625 -22.515625 C 10.75 -21.484375 10.546875 -20.347656 10.546875 -19.109375 L 10.546875 -18.671875 L 26.625 -18.671875 L 26.625 -19.296875 C 26.625 -21.816406 25.910156 -23.832031 24.484375 -25.34375 C 23.054688 -26.851562 21.160156 -27.609375 18.796875 -27.609375 Z M 18.796875 -27.609375 "/></g></g></g><g fill="#ffffff" fill-opacity="1"><g transform="translate(206.106457, 274.064922)"><g><path d="M 5.453125 0 L 5.453125 -5.765625 L 17.625 -5.765625 L 17.625 -38.21875 L 17.125 -38.21875 L 7.078125 -27.484375 L 2.796875 -31.328125 L 13.84375 -43.3125 L 24.578125 -43.3125 L 24.578125 -5.765625 L 35.0625 -5.765625 L 35.0625 0 Z M 5.453125 0 "/></g></g></g><g fill="#007bff" fill-opacity="1"><g transform="translate(243.336294, 274.064922)"><g><path d="M 18.609375 0.75 C 15.878906 0.75 13.507812 0.242188 11.5 -0.765625 C 9.5 -1.785156 7.847656 -3.242188 6.546875 -5.140625 C 5.242188 -7.046875 4.28125 -9.382812 3.65625 -12.15625 C 3.039062 -14.925781 2.734375 -18.09375 2.734375 -21.65625 C 2.734375 -25.164062 3.039062 -28.316406 3.65625 -31.109375 C 4.28125 -33.898438 5.242188 -36.25 6.546875 -38.15625 C 7.847656 -40.0625 9.5 -41.519531 11.5 -42.53125 C 13.507812 -43.539062 15.878906 -44.046875 18.609375 -44.046875 C 21.335938 -44.046875 23.707031 -43.539062 25.71875 -42.53125 C 27.726562 -41.519531 29.382812 -40.0625 30.6875 -38.15625 C 31.988281 -36.25 32.945312 -33.898438 33.5625 -31.109375 C 34.1875 -28.316406 34.5 -25.164062 34.5 -21.65625 C 34.5 -18.09375 34.1875 -14.925781 33.5625 -12.15625 C 32.945312 -9.382812 31.988281 -7.046875 30.6875 -5.140625 C 29.382812 -3.242188 27.726562 -1.785156 25.71875 -0.765625 C 23.707031 0.242188 21.335938 0.75 18.609375 0.75 Z M 18.609375 -4.96875 C 21.753906 -4.96875 24 -6.132812 25.34375 -8.46875 C 26.6875 -10.800781 27.359375 -13.957031 27.359375 -17.9375 L 27.359375 -25.375 C 27.359375 -29.34375 26.6875 -32.492188 25.34375 -34.828125 C 24 -37.171875 21.753906 -38.34375 18.609375 -38.34375 C 17.035156 -38.34375 15.691406 -38.039062 14.578125 -37.4375 C 13.460938 -36.84375 12.550781 -35.976562 11.84375 -34.84375 C 11.144531 -33.707031 10.640625 -32.34375 10.328125 -30.75 C 10.015625 -29.15625 9.859375 -27.363281 9.859375 -25.375 L 9.859375 -17.9375 C 9.859375 -15.945312 10.015625 -14.15625 10.328125 -12.5625 C 10.640625 -10.96875 11.144531 -9.601562 11.84375 -8.46875 C 12.550781 -7.332031 13.460938 -6.460938 14.578125 -5.859375 C 15.691406 -5.265625 17.035156 -4.96875 18.609375 -4.96875 Z M 18.609375 -18 C 17.160156 -18 16.15625 -18.285156 15.59375 -18.859375 C 15.039062 -19.441406 14.765625 -20.144531 14.765625 -20.96875 L 14.765625 -22.34375 C 14.765625 -23.164062 15.039062 -23.863281 15.59375 -24.4375 C 16.15625 -25.019531 17.160156 -25.3125 18.609375 -25.3125 C 20.054688 -25.3125 21.054688 -25.019531 21.609375 -24.4375 C 22.171875 -23.863281 22.453125 -23.164062 22.453125 -22.34375 L 22.453125 -20.96875 C 22.453125 -20.144531 22.171875 -19.441406 21.609375 -18.859375 C 21.054688 -18.285156 20.054688 -18 18.609375 -18 Z M 18.609375 -18 "/></g></g></g><g fill="#ffffff" fill-opacity="1"><g transform="translate(280.566131, 274.064922)"><g><path d="M 5.453125 0 L 5.453125 -5.765625 L 17.625 -5.765625 L 17.625 -38.21875 L 17.125 -38.21875 L 7.078125 -27.484375 L 2.796875 -31.328125 L 13.84375 -43.3125 L 24.578125 -43.3125 L 24.578125 -5.765625 L 35.0625 -5.765625 L 35.0625 0 Z M 5.453125 0 "/></g></g></g><g clip-path="url(#3ae57b288d)"><path fill="#ffffff" d="M 184.9375 85.988281 C 184.886719 85.988281 184.839844 85.996094 184.792969 86.003906 C 184.707031 86.027344 184.625 86.058594 184.546875 86.09375 C 184.453125 86.132812 184.355469 86.171875 184.257812 86.210938 C 184.066406 86.289062 183.875 86.367188 183.683594 86.445312 C 183.492188 86.519531 183.296875 86.589844 183.101562 86.664062 C 182.726562 86.800781 182.351562 86.941406 181.976562 87.082031 C 180.796875 87.523438 179.621094 87.964844 178.441406 88.40625 C 178.039062 88.558594 177.636719 88.707031 177.234375 88.859375 C 177.039062 88.933594 176.84375 89.007812 176.648438 89.078125 C 176.089844 89.277344 175.527344 89.464844 174.96875 89.660156 C 173.875 90.039062 172.78125 90.417969 171.6875 90.792969 C 170.984375 91.039062 170.285156 91.277344 169.585938 91.523438 C 169.136719 91.679688 168.691406 91.84375 168.242188 92.003906 C 167.363281 92.316406 166.484375 92.632812 165.605469 92.945312 C 164.921875 93.191406 164.238281 93.433594 163.554688 93.679688 C 163.316406 93.765625 163.078125 93.847656 162.839844 93.933594 C 162.730469 93.972656 162.617188 94.011719 162.507812 94.054688 C 162.160156 94.1875 161.816406 94.324219 161.472656 94.460938 C 160.8125 94.722656 160.152344 94.984375 159.492188 95.246094 C 158.609375 95.59375 157.730469 95.941406 156.847656 96.292969 C 156.421875 96.460938 155.992188 96.625 155.570312 96.796875 C 155.226562 96.9375 154.886719 97.085938 154.546875 97.230469 C 153.894531 97.507812 153.238281 97.785156 152.585938 98.0625 C 151.714844 98.433594 150.84375 98.804688 149.972656 99.175781 C 149.550781 99.355469 149.125 99.53125 148.707031 99.714844 C 148.40625 99.84375 148.113281 99.980469 147.816406 100.113281 C 147.234375 100.375 146.652344 100.632812 146.074219 100.894531 C 145.140625 101.3125 144.210938 101.730469 143.28125 102.152344 C 142.96875 102.289062 142.660156 102.429688 142.347656 102.566406 C 142.1875 102.640625 142.023438 102.710938 141.863281 102.789062 C 141.488281 102.964844 141.117188 103.152344 140.746094 103.332031 C 140 103.695312 139.253906 104.058594 138.511719 104.421875 C 137.765625 104.789062 137.019531 105.152344 136.273438 105.515625 C 135.902344 105.695312 135.527344 105.875 135.15625 106.0625 C 134.90625 106.1875 134.65625 106.324219 134.40625 106.453125 C 133.933594 106.703125 133.460938 106.949219 132.988281 107.199219 C 131.542969 107.957031 130.097656 108.714844 128.652344 109.472656 C 128.089844 109.769531 127.527344 110.070312 126.960938 110.371094 C 125.925781 110.921875 124.890625 111.46875 123.855469 112.019531 C 123.410156 112.257812 122.964844 112.492188 122.519531 112.730469 C 122.308594 112.839844 122.101562 112.957031 121.890625 113.0625 C 121.535156 113.246094 121.171875 113.417969 120.8125 113.59375 C 120.121094 113.933594 119.429688 114.273438 118.738281 114.613281 C 117.941406 115.003906 117.144531 115.394531 116.347656 115.789062 C 115.960938 115.976562 115.578125 116.171875 115.191406 116.355469 C 115.070312 116.414062 114.949219 116.464844 114.828125 116.519531 C 114.597656 116.625 114.367188 116.726562 114.136719 116.832031 C 113.464844 117.136719 112.789062 117.441406 112.117188 117.742188 C 111.28125 118.121094 110.445312 118.5 109.609375 118.878906 C 109.191406 119.066406 108.773438 119.261719 108.355469 119.441406 C 107.757812 119.703125 107.15625 119.953125 106.554688 120.207031 C 105.359375 120.71875 104.160156 121.226562 102.960938 121.734375 L 101.695312 122.273438 C 101.628906 122.304688 101.558594 122.332031 101.492188 122.359375 C 101.390625 122.402344 101.3125 122.425781 101.226562 122.511719 C 101.167969 122.566406 101.125 122.632812 101.09375 122.707031 C 101.046875 122.832031 101.054688 122.984375 101.046875 123.117188 C 101.046875 123.144531 101.042969 123.171875 101.042969 123.199219 C 101.042969 123.25 101.039062 123.300781 101.039062 123.355469 C 101.023438 123.691406 101.011719 124.03125 100.996094 124.371094 C 100.949219 125.574219 100.902344 126.777344 100.855469 127.976562 C 100.839844 128.472656 100.820312 128.96875 100.800781 129.464844 C 100.789062 129.726562 100.785156 129.988281 100.769531 130.25 C 100.746094 130.617188 100.710938 130.984375 100.679688 131.347656 C 100.628906 132.027344 100.574219 132.707031 100.519531 133.386719 C 100.382812 135.160156 100.246094 136.9375 100.09375 138.714844 C 100.003906 139.785156 99.914062 140.855469 99.824219 141.925781 C 99.804688 142.136719 99.785156 142.34375 99.769531 142.554688 C 99.761719 142.632812 99.753906 142.710938 99.75 142.789062 C 99.746094 142.820312 99.742188 142.867188 99.738281 142.90625 C 99.738281 142.996094 99.742188 143.082031 99.753906 143.171875 C 99.757812 143.203125 99.765625 143.234375 99.769531 143.261719 C 99.78125 143.335938 99.800781 143.40625 99.820312 143.476562 C 99.933594 143.847656 100.144531 144.152344 100.449219 144.394531 C 100.550781 144.472656 100.660156 144.542969 100.777344 144.601562 C 100.804688 144.617188 100.835938 144.628906 100.867188 144.644531 C 101.082031 144.757812 101.296875 144.875 101.511719 144.992188 C 101.796875 145.144531 102.085938 145.300781 102.371094 145.457031 C 102.527344 145.539062 102.683594 145.628906 102.84375 145.707031 C 103.347656 145.960938 103.851562 146.207031 104.355469 146.457031 C 105.511719 147.027344 106.667969 147.601562 107.820312 148.171875 C 108.207031 148.363281 108.589844 148.554688 108.976562 148.746094 C 109.164062 148.835938 109.347656 148.933594 109.535156 149.019531 C 109.734375 149.113281 109.9375 149.203125 110.140625 149.292969 C 110.546875 149.476562 110.949219 149.660156 111.355469 149.839844 C 112.566406 150.390625 113.78125 150.9375 114.996094 151.484375 C 115.441406 151.683594 115.882812 151.890625 116.332031 152.085938 C 116.667969 152.234375 117.011719 152.375 117.351562 152.519531 C 118.019531 152.804688 118.6875 153.085938 119.355469 153.367188 C 120.214844 153.730469 121.070312 154.097656 121.929688 154.460938 C 122.214844 154.582031 122.5 154.703125 122.789062 154.824219 C 122.9375 154.886719 123.085938 154.953125 123.238281 155.011719 C 123.59375 155.15625 123.953125 155.296875 124.3125 155.4375 C 125 155.707031 125.6875 155.980469 126.378906 156.25 C 127.230469 156.585938 128.085938 156.921875 128.941406 157.257812 C 129.214844 157.367188 129.492188 157.476562 129.765625 157.582031 C 129.902344 157.636719 130.042969 157.695312 130.179688 157.746094 C 130.5 157.867188 130.820312 157.972656 131.144531 158.085938 C 131.757812 158.304688 132.375 158.523438 132.988281 158.742188 C 133.941406 159.078125 134.890625 159.414062 135.839844 159.753906 C 136.316406 159.921875 136.789062 160.09375 137.265625 160.257812 C 138.910156 160.820312 140.554688 161.378906 142.195312 161.941406 C 142.671875 162.101562 143.152344 162.265625 143.628906 162.429688 C 143.867188 162.511719 144.105469 162.589844 144.34375 162.675781 C 144.761719 162.824219 145.179688 162.980469 145.597656 163.132812 C 146.433594 163.441406 147.265625 163.746094 148.101562 164.050781 C 148.824219 164.316406 149.546875 164.582031 150.273438 164.847656 C 150.632812 164.980469 150.996094 165.109375 151.355469 165.246094 C 151.496094 165.300781 151.628906 165.355469 151.765625 165.414062 C 152.027344 165.519531 152.289062 165.625 152.550781 165.730469 C 153.347656 166.050781 154.140625 166.371094 154.9375 166.695312 C 155.652344 166.984375 156.363281 167.273438 157.078125 167.5625 C 157.351562 167.671875 157.625 167.785156 157.898438 167.894531 C 158.035156 167.949219 158.175781 168.003906 158.3125 168.0625 C 158.472656 168.132812 158.636719 168.203125 158.800781 168.277344 L 163.027344 170.128906 C 163.5 170.339844 163.972656 170.546875 164.449219 170.753906 C 164.679688 170.855469 164.910156 170.953125 165.140625 171.058594 C 165.300781 171.132812 165.460938 171.214844 165.617188 171.292969 C 165.9375 171.449219 166.257812 171.605469 166.574219 171.761719 C 167.503906 172.21875 168.433594 172.679688 169.363281 173.136719 L 175.503906 176.15625 C 176.59375 176.695312 177.683594 177.234375 178.773438 177.765625 C 180.332031 178.527344 181.890625 179.285156 183.445312 180.042969 L 184.046875 180.335938 C 184.234375 180.429688 184.414062 180.527344 184.621094 180.574219 C 184.675781 180.585938 184.726562 180.59375 184.78125 180.601562 C 184.84375 180.605469 184.910156 180.609375 184.972656 180.609375 C 185.046875 180.609375 185.125 180.601562 185.199219 180.59375 C 185.378906 180.5625 185.550781 180.503906 185.710938 180.417969 C 185.796875 180.367188 185.875 180.3125 185.949219 180.25 C 186.085938 180.136719 186.199219 180 186.289062 179.847656 C 186.355469 179.734375 186.40625 179.613281 186.441406 179.484375 C 186.457031 179.4375 186.464844 179.390625 186.476562 179.339844 C 186.492188 179.226562 186.5 179.113281 186.503906 179 C 186.507812 178.847656 186.515625 178.695312 186.523438 178.539062 C 186.585938 177.105469 186.648438 175.667969 186.707031 174.234375 C 186.96875 168.03125 186.707031 174.234375 187.492188 155.628906 C 187.492188 155.609375 187.492188 155.589844 187.492188 155.566406 C 187.492188 155.558594 187.488281 155.550781 187.488281 155.542969 C 187.46875 154.871094 187.214844 154.300781 186.734375 153.828125 C 186.730469 153.824219 186.722656 153.820312 186.71875 153.816406 C 186.421875 153.527344 186.070312 153.324219 185.671875 153.210938 C 171.78125 148.464844 176.027344 149.914062 171.207031 148.265625 C 169.039062 147.527344 166.875 146.789062 164.707031 146.050781 C 163.550781 145.65625 162.390625 145.269531 161.230469 144.878906 C 158.929688 144.105469 156.628906 143.332031 154.328125 142.558594 C 153.484375 142.277344 152.640625 141.992188 151.796875 141.707031 C 151.378906 141.566406 150.957031 141.429688 150.539062 141.285156 C 150.371094 141.226562 150.203125 141.164062 150.035156 141.101562 C 149.734375 140.992188 149.4375 140.882812 149.136719 140.773438 C 148.21875 140.441406 147.300781 140.105469 146.382812 139.769531 C 145.738281 139.535156 145.09375 139.300781 144.449219 139.066406 C 144.132812 138.953125 143.816406 138.839844 143.503906 138.722656 C 143.160156 138.59375 142.820312 138.449219 142.476562 138.3125 C 141.800781 138.042969 141.121094 137.773438 140.441406 137.503906 C 139.582031 137.160156 138.722656 136.816406 137.859375 136.472656 C 137.417969 136.296875 136.972656 136.125 136.535156 135.945312 C 136.199219 135.804688 135.863281 135.660156 135.527344 135.515625 L 133.542969 134.671875 C 132.695312 134.3125 131.847656 133.953125 131 133.59375 C 130.464844 133.367188 129.929688 133.144531 129.40625 132.902344 C 129.980469 132.71875 130.558594 132.535156 131.136719 132.351562 C 131.332031 132.289062 131.523438 132.226562 131.714844 132.164062 C 132.007812 132.074219 132.300781 131.992188 132.59375 131.902344 C 133.121094 131.746094 133.644531 131.589844 134.171875 131.433594 C 135.730469 130.972656 137.292969 130.507812 138.851562 130.042969 C 139.277344 129.917969 139.703125 129.777344 140.128906 129.644531 C 140.945312 129.386719 141.757812 129.132812 142.570312 128.875 C 143.347656 128.632812 144.121094 128.390625 144.898438 128.148438 C 145.285156 128.023438 145.675781 127.910156 146.0625 127.78125 C 146.40625 127.667969 146.75 127.539062 147.09375 127.417969 C 147.746094 127.1875 148.394531 126.960938 149.042969 126.730469 C 149.960938 126.40625 150.878906 126.082031 151.800781 125.757812 C 152.238281 125.605469 152.679688 125.453125 153.117188 125.292969 C 153.574219 125.125 154.027344 124.949219 154.480469 124.773438 C 155.390625 124.429688 156.300781 124.082031 157.210938 123.734375 C 157.855469 123.492188 158.5 123.246094 159.144531 123 C 159.464844 122.878906 159.789062 122.761719 160.109375 122.632812 C 160.542969 122.460938 160.972656 122.277344 161.402344 122.101562 C 162.265625 121.75 163.128906 121.394531 163.992188 121.042969 C 164.667969 120.765625 165.34375 120.488281 166.019531 120.210938 C 166.246094 120.117188 166.46875 120.027344 166.695312 119.933594 C 166.808594 119.886719 166.921875 119.84375 167.03125 119.796875 C 167.40625 119.632812 167.773438 119.460938 168.140625 119.292969 C 168.863281 118.96875 169.585938 118.644531 170.308594 118.316406 C 171.105469 117.960938 171.902344 117.601562 172.695312 117.242188 C 172.957031 117.125 173.214844 117.007812 173.472656 116.890625 C 173.640625 116.816406 173.808594 116.742188 173.972656 116.660156 C 175.4375 115.949219 176.898438 115.242188 178.363281 114.53125 C 179.097656 114.175781 179.828125 113.816406 180.5625 113.464844 C 180.855469 113.324219 181.152344 113.191406 181.445312 113.054688 C 181.980469 112.808594 182.515625 112.5625 183.050781 112.3125 C 183.289062 112.203125 183.53125 112.09375 183.769531 111.980469 C 183.972656 111.886719 184.175781 111.792969 184.378906 111.699219 C 184.617188 111.589844 184.859375 111.476562 185.097656 111.367188 C 185.257812 111.292969 185.433594 111.226562 185.566406 111.117188 C 185.773438 110.945312 185.894531 110.730469 185.925781 110.460938 C 185.9375 110.351562 185.933594 110.242188 185.921875 110.132812 C 185.910156 109.980469 185.902344 109.828125 185.890625 109.671875 C 185.859375 109.179688 185.824219 108.6875 185.792969 108.195312 C 185.78125 108.027344 185.78125 107.859375 185.773438 107.6875 C 185.769531 107.441406 185.761719 107.195312 185.753906 106.953125 C 185.734375 106.214844 185.714844 105.476562 185.695312 104.734375 C 185.671875 103.8125 185.648438 102.890625 185.621094 101.964844 C 185.609375 101.519531 185.59375 101.074219 185.585938 100.628906 C 185.585938 100.460938 185.585938 100.289062 185.585938 100.121094 C 185.585938 99.796875 185.585938 99.476562 185.585938 99.152344 C 185.585938 98.199219 185.585938 97.246094 185.585938 96.292969 C 185.585938 95.582031 185.585938 94.875 185.585938 94.167969 C 185.585938 93.828125 185.582031 93.492188 185.582031 93.152344 C 185.585938 92.828125 185.597656 92.507812 185.605469 92.183594 C 185.640625 90.722656 185.671875 89.261719 185.707031 87.800781 C 185.710938 87.632812 185.714844 87.460938 185.71875 87.292969 C 185.722656 87.167969 185.722656 87.046875 185.726562 86.921875 C 185.730469 86.761719 185.738281 86.625 185.671875 86.464844 C 185.660156 86.433594 185.644531 86.402344 185.625 86.371094 C 185.605469 86.335938 185.582031 86.300781 185.554688 86.269531 C 185.527344 86.234375 185.492188 86.199219 185.457031 86.167969 C 185.421875 86.136719 185.382812 86.109375 185.339844 86.085938 C 185.296875 86.0625 185.253906 86.042969 185.210938 86.027344 C 185.167969 86.015625 185.125 86.003906 185.082031 85.996094 C 185.035156 85.988281 184.984375 85.984375 184.9375 85.988281 Z M 184.238281 87.917969 C 184.242188 88.046875 184.246094 88.175781 184.25 88.308594 C 184.273438 89.339844 184.296875 90.367188 184.320312 91.398438 C 184.332031 91.785156 184.339844 92.167969 184.347656 92.554688 C 184.351562 92.753906 184.359375 92.953125 184.359375 93.152344 C 184.363281 93.597656 184.359375 94.046875 184.359375 94.492188 C 184.359375 95.382812 184.359375 96.273438 184.359375 97.167969 C 184.359375 97.9375 184.359375 98.707031 184.359375 99.476562 C 184.359375 99.859375 184.363281 100.246094 184.355469 100.628906 C 184.34375 101.351562 184.320312 102.074219 184.300781 102.796875 C 184.261719 104.242188 184.222656 105.691406 184.183594 107.136719 C 184.175781 107.351562 184.171875 107.566406 184.167969 107.78125 C 184.164062 107.890625 184.164062 107.996094 184.15625 108.105469 C 184.136719 108.503906 184.105469 108.90625 184.078125 109.304688 C 184.070312 109.417969 184.0625 109.53125 184.054688 109.644531 C 184.011719 109.65625 183.96875 109.671875 183.925781 109.683594 C 183.5 109.816406 183.074219 109.949219 182.648438 110.082031 C 181.65625 110.390625 180.667969 110.703125 179.679688 111.007812 C 179.367188 111.101562 179.054688 111.191406 178.742188 111.28125 C 177.335938 111.691406 175.929688 112.101562 174.523438 112.511719 C 173.839844 112.710938 173.15625 112.90625 172.472656 113.109375 C 172.261719 113.175781 172.046875 113.246094 171.835938 113.316406 C 171.449219 113.4375 171.0625 113.5625 170.675781 113.6875 C 169.496094 114.070312 168.320312 114.449219 167.140625 114.828125 C 166.734375 114.957031 166.328125 115.089844 165.921875 115.21875 C 165.730469 115.28125 165.535156 115.34375 165.34375 115.40625 C 165.207031 115.453125 165.074219 115.503906 164.941406 115.550781 C 164.695312 115.640625 164.445312 115.730469 164.199219 115.820312 C 163.453125 116.085938 162.710938 116.355469 161.964844 116.625 L 159.503906 117.511719 C 159.105469 117.65625 158.703125 117.796875 158.304688 117.945312 C 157.960938 118.074219 157.625 118.210938 157.285156 118.34375 C 156.605469 118.609375 155.925781 118.875 155.246094 119.136719 C 154.375 119.476562 153.507812 119.816406 152.636719 120.15625 C 152.203125 120.324219 151.765625 120.488281 151.335938 120.664062 C 150.882812 120.84375 150.4375 121.039062 149.988281 121.226562 C 149.105469 121.59375 148.226562 121.960938 147.351562 122.332031 C 146.695312 122.605469 146.039062 122.878906 145.386719 123.152344 C 145.066406 123.285156 144.746094 123.414062 144.429688 123.550781 C 144.078125 123.707031 143.730469 123.875 143.378906 124.035156 C 142.714844 124.339844 142.050781 124.644531 141.386719 124.953125 C 140.554688 125.332031 139.726562 125.714844 138.894531 126.097656 C 138.46875 126.292969 138.042969 126.484375 137.621094 126.683594 C 136.902344 127.023438 136.191406 127.367188 135.476562 127.710938 C 134.449219 128.203125 133.421875 128.695312 132.394531 129.1875 L 131.347656 129.6875 C 131.183594 129.765625 131.019531 129.847656 130.851562 129.921875 C 130.558594 130.058594 130.261719 130.191406 129.964844 130.328125 L 128.300781 131.082031 C 128.132812 131.15625 127.96875 131.230469 127.800781 131.304688 C 127.652344 131.375 127.503906 131.441406 127.359375 131.507812 C 127.246094 131.558594 127.136719 131.609375 127.023438 131.65625 C 126.875 131.726562 126.726562 131.792969 126.582031 131.859375 C 126.539062 131.878906 126.5 131.894531 126.460938 131.914062 C 126.441406 131.921875 126.421875 131.929688 126.402344 131.941406 C 126.289062 132.042969 126.066406 132.101562 126.074219 132.253906 C 126.109375 132.726562 126.371094 133.160156 126.519531 133.613281 C 126.519531 133.613281 126.558594 133.625 126.5625 133.625 C 126.566406 133.628906 126.574219 133.628906 126.578125 133.628906 C 126.625 133.644531 126.671875 133.664062 126.71875 133.675781 C 126.910156 133.742188 127.105469 133.804688 127.296875 133.867188 C 127.699219 134 128.097656 134.128906 128.496094 134.261719 C 128.703125 134.332031 128.917969 134.394531 129.125 134.46875 C 129.320312 134.535156 129.511719 134.609375 129.707031 134.679688 C 131.132812 135.199219 132.5625 135.714844 133.988281 136.234375 C 134.695312 136.492188 135.40625 136.746094 136.113281 137.007812 C 136.289062 137.074219 136.464844 137.144531 136.640625 137.210938 C 136.953125 137.332031 137.265625 137.457031 137.582031 137.578125 C 138.515625 137.941406 139.445312 138.304688 140.378906 138.667969 C 140.980469 138.898438 141.582031 139.132812 142.183594 139.367188 C 142.488281 139.488281 142.800781 139.601562 143.105469 139.730469 C 143.539062 139.90625 143.96875 140.09375 144.398438 140.273438 C 145.265625 140.640625 146.132812 141.007812 147 141.375 C 147.671875 141.660156 148.34375 141.945312 149.011719 142.230469 C 149.34375 142.367188 149.675781 142.503906 150.003906 142.648438 C 150.445312 142.847656 150.882812 143.046875 151.320312 143.246094 C 152.1875 143.640625 153.054688 144.035156 153.921875 144.425781 C 156.542969 145.617188 159.164062 146.804688 161.785156 147.992188 C 164.839844 149.378906 167.902344 150.746094 170.96875 152.117188 C 174.816406 153.84375 174.25 153.589844 182.519531 157.289062 C 182.957031 167.617188 182.914062 166.601562 183.113281 171.253906 C 183.183594 172.996094 183.257812 174.738281 183.332031 176.480469 C 183.335938 176.601562 183.34375 176.71875 183.347656 176.839844 C 182.15625 176.386719 180.960938 175.929688 179.765625 175.476562 C 178.425781 174.960938 177.078125 174.460938 175.734375 173.953125 C 173.210938 173 170.691406 172.050781 168.167969 171.097656 C 167.585938 170.878906 167.003906 170.660156 166.421875 170.441406 C 166.226562 170.367188 166.035156 170.296875 165.839844 170.222656 C 165.742188 170.1875 165.644531 170.152344 165.546875 170.113281 C 165.425781 170.0625 165.304688 170.007812 165.179688 169.953125 C 164.964844 169.859375 164.746094 169.769531 164.527344 169.675781 C 163.875 169.394531 163.222656 169.117188 162.570312 168.835938 C 161.699219 168.464844 160.828125 168.089844 159.957031 167.71875 C 159.539062 167.539062 159.113281 167.359375 158.695312 167.175781 C 158.371094 167.035156 158.050781 166.878906 157.726562 166.730469 C 157.125 166.449219 156.519531 166.171875 155.914062 165.890625 C 155.015625 165.476562 154.113281 165.058594 153.214844 164.644531 C 152.917969 164.507812 152.625 164.367188 152.328125 164.230469 C 152.179688 164.164062 152.03125 164.097656 151.882812 164.027344 C 151.539062 163.859375 151.195312 163.679688 150.851562 163.507812 C 150.164062 163.160156 149.476562 162.8125 148.789062 162.46875 C 147.992188 162.066406 147.199219 161.667969 146.40625 161.269531 C 146.007812 161.070312 145.609375 160.871094 145.214844 160.667969 C 144.988281 160.554688 144.769531 160.429688 144.546875 160.3125 C 144.101562 160.074219 143.652344 159.839844 143.207031 159.601562 C 141.675781 158.789062 140.144531 157.96875 138.609375 157.15625 C 138.175781 156.929688 137.742188 156.707031 137.304688 156.480469 C 136.449219 156.039062 135.59375 155.597656 134.738281 155.152344 L 132.839844 154.171875 C 132.539062 154.015625 132.238281 153.851562 131.933594 153.703125 C 131.613281 153.542969 131.289062 153.398438 130.96875 153.246094 C 130.355469 152.953125 129.738281 152.660156 129.125 152.367188 C 128.242188 151.949219 127.359375 151.53125 126.476562 151.113281 C 126.046875 150.910156 125.621094 150.703125 125.191406 150.503906 C 124.816406 150.328125 124.433594 150.167969 124.054688 150 C 123.339844 149.683594 122.621094 149.363281 121.90625 149.046875 C 121.105469 148.695312 120.308594 148.339844 119.511719 147.988281 C 119.117188 147.8125 118.726562 147.632812 118.332031 147.464844 C 117.777344 147.226562 117.210938 147 116.652344 146.765625 C 115.546875 146.308594 114.441406 145.847656 113.332031 145.386719 C 112.910156 145.210938 112.488281 145.035156 112.0625 144.859375 C 111.859375 144.773438 111.65625 144.683594 111.449219 144.601562 C 111.242188 144.519531 111.03125 144.445312 110.824219 144.371094 C 110.421875 144.21875 110.019531 144.066406 109.617188 143.917969 C 108.410156 143.464844 107.203125 143.015625 105.996094 142.5625 C 105.484375 142.367188 104.972656 142.171875 104.457031 141.984375 C 104.34375 141.945312 104.230469 141.90625 104.121094 141.871094 C 103.921875 141.804688 103.726562 141.738281 103.527344 141.671875 C 103.449219 141.644531 103.371094 141.621094 103.296875 141.59375 C 103.28125 141.445312 103.269531 141.292969 103.257812 141.144531 C 103.15625 139.96875 103.050781 138.792969 102.960938 137.617188 C 102.828125 135.972656 102.699219 134.324219 102.570312 132.679688 C 102.527344 132.132812 102.484375 131.582031 102.441406 131.035156 C 102.417969 130.773438 102.394531 130.511719 102.378906 130.25 C 102.359375 129.964844 102.355469 129.675781 102.34375 129.390625 C 102.324219 128.867188 102.304688 128.34375 102.285156 127.820312 C 102.238281 126.644531 102.191406 125.46875 102.144531 124.292969 C 102.132812 123.953125 102.117188 123.617188 102.105469 123.277344 C 102.105469 123.253906 102.101562 123.234375 102.101562 123.210938 C 102.222656 123.15625 102.34375 123.101562 102.46875 123.050781 C 102.898438 122.859375 103.332031 122.667969 103.765625 122.476562 C 105.066406 121.902344 106.367188 121.328125 107.664062 120.753906 C 108.015625 120.601562 108.367188 120.441406 108.71875 120.289062 C 109.140625 120.105469 109.566406 119.9375 109.988281 119.757812 L 112.410156 118.753906 C 113.132812 118.453125 113.855469 118.152344 114.582031 117.851562 C 114.8125 117.757812 115.046875 117.660156 115.277344 117.5625 C 115.402344 117.511719 115.523438 117.460938 115.648438 117.410156 C 116.089844 117.238281 116.535156 117.078125 116.976562 116.910156 C 117.835938 116.585938 118.695312 116.257812 119.554688 115.933594 C 120.246094 115.671875 120.941406 115.410156 121.632812 115.148438 C 121.964844 115.023438 122.296875 114.894531 122.628906 114.773438 C 122.992188 114.640625 123.359375 114.523438 123.726562 114.398438 C 124.441406 114.152344 125.15625 113.90625 125.875 113.660156 C 127.152344 113.222656 128.429688 112.785156 129.707031 112.351562 C 130.925781 111.929688 132.144531 111.503906 133.363281 111.078125 C 134.136719 110.8125 134.90625 110.542969 135.675781 110.273438 C 136.054688 110.144531 136.433594 110.019531 136.8125 109.878906 C 137.199219 109.738281 137.585938 109.585938 137.972656 109.4375 L 140.296875 108.550781 C 141.074219 108.257812 141.847656 107.960938 142.625 107.667969 C 143.011719 107.519531 143.402344 107.375 143.785156 107.222656 C 143.925781 107.167969 144.058594 107.109375 144.195312 107.050781 C 144.46875 106.9375 144.742188 106.824219 145.015625 106.710938 C 145.835938 106.367188 146.652344 106.027344 147.472656 105.683594 C 148.195312 105.382812 148.917969 105.078125 149.644531 104.777344 C 149.996094 104.628906 150.355469 104.484375 150.707031 104.332031 C 151.15625 104.136719 151.601562 103.9375 152.046875 103.742188 C 152.925781 103.351562 153.804688 102.964844 154.6875 102.574219 C 155.324219 102.292969 155.957031 102.011719 156.59375 101.730469 C 156.90625 101.59375 157.21875 101.460938 157.527344 101.316406 C 157.769531 101.207031 158.007812 101.089844 158.25 100.976562 L 159.695312 100.292969 L 163.953125 98.285156 C 164.058594 98.234375 164.164062 98.183594 164.273438 98.132812 C 164.40625 98.066406 164.539062 97.996094 164.667969 97.929688 C 164.894531 97.8125 165.117188 97.699219 165.339844 97.582031 C 165.960938 97.265625 166.582031 96.945312 167.199219 96.628906 C 168.03125 96.199219 168.863281 95.773438 169.691406 95.347656 C 170.113281 95.128906 170.539062 94.917969 170.957031 94.695312 C 171.839844 94.238281 172.71875 93.769531 173.597656 93.308594 C 174.453125 92.859375 175.304688 92.410156 176.15625 91.960938 C 176.628906 91.710938 177.101562 91.457031 177.574219 91.210938 C 177.746094 91.125 177.921875 91.042969 178.09375 90.957031 C 179.6875 90.167969 181.277344 89.378906 182.871094 88.589844 C 183.175781 88.4375 183.484375 88.289062 183.789062 88.136719 C 183.9375 88.0625 184.089844 87.988281 184.238281 87.917969 Z M 103.382812 142.632812 C 103.386719 142.644531 103.390625 142.660156 103.394531 142.671875 C 103.402344 142.746094 103.40625 142.820312 103.40625 142.890625 C 103.40625 142.882812 103.402344 142.875 103.402344 142.867188 C 103.402344 142.84375 103.398438 142.816406 103.398438 142.789062 C 103.394531 142.761719 103.390625 142.738281 103.390625 142.710938 C 103.386719 142.683594 103.386719 142.660156 103.382812 142.632812 Z M 103.382812 142.632812 " fill-opacity="1" fill-rule="nonzero"/></g><g clip-path="url(#239f61cd08)"><path fill="#007bff" d="M 190.0625 215.117188 C 190.109375 215.113281 190.160156 215.109375 190.207031 215.097656 C 190.292969 215.078125 190.375 215.046875 190.453125 215.011719 C 190.546875 214.972656 190.644531 214.933594 190.742188 214.894531 C 190.933594 214.816406 191.125 214.738281 191.316406 214.660156 C 191.507812 214.582031 191.703125 214.515625 191.898438 214.441406 C 192.273438 214.300781 192.648438 214.160156 193.023438 214.019531 C 194.203125 213.578125 195.378906 213.136719 196.558594 212.695312 C 196.960938 212.546875 197.363281 212.394531 197.765625 212.246094 C 197.960938 212.171875 198.15625 212.097656 198.351562 212.027344 C 198.910156 211.828125 199.472656 211.636719 200.03125 211.445312 C 201.125 211.066406 202.21875 210.6875 203.3125 210.308594 C 204.015625 210.066406 204.714844 209.828125 205.414062 209.582031 C 205.863281 209.425781 206.308594 209.261719 206.757812 209.101562 C 207.636719 208.789062 208.515625 208.472656 209.394531 208.160156 C 210.078125 207.914062 210.761719 207.667969 211.445312 207.425781 C 211.683594 207.339844 211.921875 207.253906 212.160156 207.171875 C 212.269531 207.128906 212.382812 207.09375 212.492188 207.050781 C 212.839844 206.917969 213.183594 206.777344 213.527344 206.640625 C 214.1875 206.378906 214.847656 206.121094 215.507812 205.859375 C 216.390625 205.507812 217.269531 205.160156 218.152344 204.8125 C 218.578125 204.644531 219.007812 204.480469 219.429688 204.304688 C 219.773438 204.164062 220.113281 204.015625 220.453125 203.871094 C 221.105469 203.59375 221.761719 203.316406 222.414062 203.039062 C 223.285156 202.671875 224.15625 202.300781 225.027344 201.929688 C 225.449219 201.75 225.875 201.574219 226.292969 201.390625 C 226.59375 201.261719 226.886719 201.125 227.183594 200.992188 C 227.765625 200.730469 228.347656 200.46875 228.925781 200.210938 C 229.859375 199.789062 230.789062 199.371094 231.71875 198.953125 C 232.03125 198.8125 232.339844 198.675781 232.652344 198.535156 C 232.8125 198.464844 232.976562 198.394531 233.136719 198.316406 C 233.511719 198.140625 233.882812 197.953125 234.253906 197.773438 C 235 197.40625 235.746094 197.042969 236.488281 196.679688 C 237.234375 196.316406 237.980469 195.953125 238.726562 195.589844 C 239.097656 195.40625 239.472656 195.230469 239.84375 195.042969 C 240.09375 194.917969 240.34375 194.78125 240.59375 194.652344 C 241.066406 194.402344 241.539062 194.152344 242.011719 193.90625 C 243.457031 193.148438 244.902344 192.390625 246.347656 191.628906 C 246.910156 191.332031 247.472656 191.03125 248.039062 190.734375 C 249.074219 190.183594 250.109375 189.632812 251.144531 189.085938 C 251.589844 188.847656 252.035156 188.609375 252.480469 188.375 C 252.691406 188.261719 252.898438 188.148438 253.109375 188.039062 C 253.464844 187.859375 253.828125 187.6875 254.1875 187.511719 C 254.878906 187.171875 255.570312 186.832031 256.261719 186.492188 C 257.058594 186.101562 257.855469 185.707031 258.652344 185.316406 C 259.039062 185.128906 259.421875 184.933594 259.808594 184.75 C 259.929688 184.691406 260.050781 184.640625 260.171875 184.582031 C 260.402344 184.480469 260.632812 184.375 260.863281 184.273438 C 261.535156 183.96875 262.210938 183.664062 262.882812 183.359375 C 263.71875 182.984375 264.554688 182.605469 265.390625 182.226562 C 265.808594 182.039062 266.226562 181.84375 266.644531 181.660156 C 267.242188 181.402344 267.84375 181.152344 268.445312 180.898438 C 269.640625 180.386719 270.839844 179.878906 272.039062 179.367188 L 273.304688 178.828125 C 273.371094 178.800781 273.441406 178.769531 273.507812 178.742188 C 273.609375 178.703125 273.6875 178.679688 273.773438 178.59375 C 273.832031 178.539062 273.875 178.472656 273.90625 178.394531 C 273.953125 178.269531 273.945312 178.117188 273.953125 177.984375 C 273.953125 177.960938 273.957031 177.933594 273.957031 177.90625 C 273.957031 177.855469 273.960938 177.800781 273.960938 177.75 C 273.976562 177.410156 273.988281 177.070312 274.003906 176.730469 C 274.050781 175.53125 274.097656 174.328125 274.144531 173.128906 C 274.160156 172.628906 274.179688 172.132812 274.199219 171.636719 C 274.210938 171.375 274.214844 171.113281 274.230469 170.855469 C 274.253906 170.488281 274.289062 170.121094 274.320312 169.757812 C 274.371094 169.078125 274.425781 168.398438 274.480469 167.71875 C 274.617188 165.941406 274.753906 164.164062 274.90625 162.390625 C 274.996094 161.320312 275.085938 160.246094 275.175781 159.175781 C 275.195312 158.96875 275.214844 158.757812 275.230469 158.550781 C 275.238281 158.472656 275.246094 158.394531 275.25 158.316406 C 275.253906 158.28125 275.257812 158.234375 275.261719 158.199219 C 275.261719 158.109375 275.257812 158.019531 275.246094 157.933594 C 275.242188 157.902344 275.234375 157.871094 275.230469 157.839844 C 275.21875 157.769531 275.199219 157.699219 275.179688 157.628906 C 275.066406 157.257812 274.855469 156.953125 274.550781 156.710938 C 274.449219 156.632812 274.339844 156.5625 274.222656 156.503906 C 274.195312 156.488281 274.164062 156.476562 274.132812 156.460938 C 273.917969 156.34375 273.703125 156.230469 273.488281 156.113281 C 273.203125 155.960938 272.914062 155.804688 272.628906 155.648438 C 272.46875 155.566406 272.316406 155.476562 272.15625 155.398438 C 271.652344 155.144531 271.148438 154.898438 270.644531 154.648438 C 269.488281 154.074219 268.332031 153.503906 267.179688 152.933594 C 266.792969 152.742188 266.40625 152.550781 266.023438 152.359375 C 265.835938 152.269531 265.652344 152.171875 265.464844 152.085938 C 265.265625 151.988281 265.0625 151.902344 264.859375 151.8125 C 264.453125 151.628906 264.050781 151.445312 263.644531 151.261719 C 262.433594 150.714844 261.21875 150.167969 260.003906 149.621094 C 259.558594 149.417969 259.117188 149.214844 258.667969 149.019531 C 258.332031 148.867188 257.988281 148.730469 257.648438 148.585938 C 256.980469 148.300781 256.3125 148.019531 255.644531 147.734375 C 254.785156 147.371094 253.929688 147.007812 253.070312 146.644531 C 252.785156 146.523438 252.5 146.402344 252.210938 146.28125 C 252.0625 146.214844 251.914062 146.152344 251.761719 146.089844 C 251.40625 145.945312 251.046875 145.808594 250.6875 145.667969 C 250 145.398438 249.3125 145.125 248.621094 144.855469 C 247.769531 144.519531 246.914062 144.183594 246.058594 143.847656 C 245.785156 143.738281 245.507812 143.628906 245.234375 143.519531 C 245.097656 143.46875 244.957031 143.410156 244.820312 143.359375 C 244.5 143.238281 244.179688 143.128906 243.855469 143.015625 C 243.242188 142.800781 242.625 142.582031 242.011719 142.363281 C 241.058594 142.027344 240.109375 141.6875 239.160156 141.351562 C 238.683594 141.183594 238.210938 141.011719 237.734375 140.847656 C 236.089844 140.28125 234.445312 139.726562 232.804688 139.164062 C 232.328125 139 231.847656 138.835938 231.371094 138.675781 C 231.132812 138.59375 230.894531 138.515625 230.65625 138.429688 C 230.238281 138.28125 229.820312 138.125 229.402344 137.96875 C 228.566406 137.664062 227.734375 137.359375 226.898438 137.050781 C 226.175781 136.785156 225.453125 136.519531 224.726562 136.253906 C 224.367188 136.121094 224.003906 135.996094 223.644531 135.859375 C 223.503906 135.804688 223.371094 135.746094 223.234375 135.691406 C 222.972656 135.585938 222.710938 135.480469 222.449219 135.375 C 221.652344 135.054688 220.859375 134.730469 220.0625 134.410156 C 219.347656 134.121094 218.636719 133.832031 217.921875 133.542969 C 217.648438 133.429688 217.375 133.320312 217.101562 133.210938 C 216.964844 133.152344 216.824219 133.101562 216.6875 133.042969 C 216.527344 132.972656 216.363281 132.898438 216.199219 132.828125 L 211.972656 130.972656 C 211.5 130.765625 211.027344 130.558594 210.550781 130.351562 C 210.320312 130.25 210.089844 130.152344 209.859375 130.046875 C 209.699219 129.972656 209.539062 129.890625 209.382812 129.8125 C 209.0625 129.65625 208.742188 129.5 208.425781 129.34375 C 207.496094 128.882812 206.566406 128.425781 205.636719 127.96875 L 199.496094 124.945312 C 198.40625 124.410156 197.316406 123.871094 196.226562 123.339844 C 194.667969 122.578125 193.109375 121.820312 191.554688 121.058594 L 190.953125 120.769531 C 190.765625 120.675781 190.585938 120.574219 190.378906 120.53125 C 190.324219 120.519531 190.273438 120.511719 190.21875 120.503906 C 190.15625 120.496094 190.089844 120.492188 190.027344 120.492188 C 189.953125 120.496094 189.875 120.5 189.800781 120.511719 C 189.621094 120.539062 189.449219 120.597656 189.289062 120.6875 C 189.203125 120.734375 189.125 120.792969 189.050781 120.855469 C 188.914062 120.96875 188.800781 121.101562 188.710938 121.253906 C 188.644531 121.371094 188.59375 121.492188 188.558594 121.617188 C 188.542969 121.664062 188.535156 121.714844 188.523438 121.761719 C 188.507812 121.875 188.5 121.992188 188.496094 122.105469 C 188.492188 122.257812 188.484375 122.410156 188.476562 122.5625 C 188.414062 124 188.351562 125.433594 188.292969 126.871094 C 188.03125 133.070312 188.292969 126.871094 187.507812 145.472656 C 187.507812 145.496094 187.507812 145.515625 187.507812 145.535156 C 187.507812 145.542969 187.511719 145.550781 187.511719 145.558594 C 187.53125 146.234375 187.785156 146.804688 188.265625 147.273438 C 188.269531 147.28125 188.277344 147.285156 188.28125 147.289062 C 188.578125 147.578125 188.929688 147.78125 189.328125 147.894531 C 203.21875 152.640625 198.972656 151.191406 203.792969 152.835938 C 205.960938 153.578125 208.125 154.316406 210.292969 155.054688 C 211.449219 155.449219 212.609375 155.835938 213.769531 156.222656 C 216.070312 156.996094 218.371094 157.769531 220.671875 158.542969 C 221.515625 158.828125 222.359375 159.113281 223.203125 159.394531 C 223.621094 159.535156 224.039062 159.675781 224.460938 159.820312 C 224.628906 159.875 224.796875 159.941406 224.964844 160.003906 C 225.265625 160.109375 225.5625 160.21875 225.863281 160.328125 C 226.78125 160.664062 227.699219 161 228.617188 161.332031 C 229.261719 161.570312 229.90625 161.804688 230.550781 162.039062 C 230.867188 162.152344 231.183594 162.265625 231.496094 162.382812 C 231.839844 162.511719 232.179688 162.65625 232.523438 162.792969 C 233.199219 163.0625 233.878906 163.332031 234.558594 163.601562 C 235.417969 163.945312 236.277344 164.289062 237.140625 164.632812 C 237.582031 164.808594 238.027344 164.976562 238.464844 165.160156 C 238.800781 165.300781 239.136719 165.445312 239.472656 165.585938 L 241.457031 166.429688 C 242.304688 166.792969 243.152344 167.152344 244 167.511719 C 244.535156 167.738281 245.070312 167.960938 245.59375 168.199219 C 245.019531 168.386719 244.441406 168.570312 243.863281 168.753906 C 243.667969 168.816406 243.476562 168.878906 243.285156 168.9375 C 242.992188 169.03125 242.699219 169.113281 242.40625 169.199219 C 241.878906 169.355469 241.355469 169.511719 240.828125 169.667969 C 239.265625 170.132812 237.707031 170.597656 236.148438 171.058594 C 235.722656 171.1875 235.296875 171.328125 234.871094 171.460938 C 234.054688 171.714844 233.242188 171.972656 232.429688 172.226562 C 231.652344 172.472656 230.878906 172.714844 230.101562 172.957031 C 229.714844 173.078125 229.324219 173.195312 228.9375 173.324219 C 228.59375 173.4375 228.25 173.566406 227.90625 173.6875 C 227.253906 173.914062 226.605469 174.144531 225.957031 174.375 C 225.039062 174.699219 224.121094 175.023438 223.199219 175.34375 C 222.761719 175.5 222.320312 175.652344 221.882812 175.8125 C 221.425781 175.980469 220.972656 176.15625 220.519531 176.328125 C 219.609375 176.675781 218.699219 177.023438 217.789062 177.367188 C 217.144531 177.613281 216.5 177.859375 215.855469 178.105469 C 215.535156 178.226562 215.210938 178.34375 214.890625 178.472656 C 214.457031 178.644531 214.027344 178.824219 213.597656 179 C 212.734375 179.355469 211.871094 179.710938 211.007812 180.0625 C 210.332031 180.339844 209.65625 180.617188 208.980469 180.894531 C 208.753906 180.988281 208.53125 181.078125 208.304688 181.167969 C 208.191406 181.214844 208.078125 181.261719 207.96875 181.308594 C 207.59375 181.472656 207.226562 181.644531 206.859375 181.8125 C 206.136719 182.136719 205.414062 182.460938 204.691406 182.785156 C 203.894531 183.144531 203.097656 183.503906 202.304688 183.863281 C 202.042969 183.980469 201.785156 184.097656 201.527344 184.214844 C 201.359375 184.289062 201.191406 184.363281 201.027344 184.445312 C 199.5625 185.152344 198.101562 185.863281 196.636719 186.574219 C 195.902344 186.929688 195.171875 187.285156 194.4375 187.636719 C 194.144531 187.777344 193.847656 187.910156 193.554688 188.046875 C 193.019531 188.296875 192.484375 188.542969 191.949219 188.789062 C 191.710938 188.902344 191.46875 189.011719 191.230469 189.125 C 191.027344 189.21875 190.824219 189.3125 190.621094 189.40625 C 190.382812 189.515625 190.140625 189.625 189.902344 189.738281 C 189.742188 189.8125 189.566406 189.878906 189.433594 189.988281 C 189.226562 190.15625 189.105469 190.375 189.074219 190.640625 C 189.0625 190.75 189.066406 190.859375 189.078125 190.96875 C 189.089844 191.125 189.097656 191.277344 189.109375 191.429688 C 189.140625 191.921875 189.175781 192.414062 189.207031 192.90625 C 189.21875 193.078125 189.21875 193.246094 189.226562 193.414062 C 189.230469 193.660156 189.238281 193.90625 189.246094 194.152344 C 189.265625 194.890625 189.285156 195.628906 189.304688 196.367188 C 189.328125 197.292969 189.351562 198.214844 189.378906 199.136719 C 189.390625 199.582031 189.40625 200.03125 189.414062 200.476562 C 189.414062 200.644531 189.414062 200.8125 189.414062 200.984375 C 189.414062 201.304688 189.414062 201.628906 189.414062 201.953125 C 189.414062 202.90625 189.414062 203.859375 189.414062 204.8125 C 189.414062 205.519531 189.414062 206.226562 189.414062 206.9375 C 189.414062 207.273438 189.417969 207.613281 189.417969 207.953125 C 189.414062 208.273438 189.402344 208.597656 189.394531 208.921875 C 189.359375 210.382812 189.328125 211.84375 189.292969 213.304688 C 189.289062 213.472656 189.285156 213.644531 189.28125 213.8125 C 189.277344 213.933594 189.277344 214.058594 189.273438 214.179688 C 189.269531 214.339844 189.261719 214.480469 189.328125 214.636719 C 189.339844 214.671875 189.355469 214.703125 189.375 214.734375 C 189.394531 214.769531 189.417969 214.804688 189.445312 214.835938 C 189.472656 214.871094 189.507812 214.90625 189.542969 214.933594 C 189.578125 214.964844 189.617188 214.992188 189.660156 215.015625 C 189.699219 215.039062 189.746094 215.0625 189.789062 215.078125 C 189.832031 215.089844 189.875 215.101562 189.917969 215.109375 C 189.964844 215.117188 190.011719 215.117188 190.0625 215.117188 Z M 190.761719 213.1875 C 190.757812 213.058594 190.753906 212.925781 190.75 212.796875 C 190.726562 211.765625 190.703125 210.734375 190.679688 209.703125 C 190.667969 209.320312 190.660156 208.933594 190.652344 208.550781 C 190.648438 208.351562 190.640625 208.152344 190.640625 207.953125 C 190.636719 207.503906 190.640625 207.058594 190.640625 206.613281 C 190.640625 205.722656 190.640625 204.828125 190.640625 203.9375 C 190.640625 203.167969 190.640625 202.398438 190.640625 201.628906 C 190.640625 201.246094 190.636719 200.859375 190.644531 200.476562 C 190.65625 199.753906 190.679688 199.027344 190.699219 198.304688 C 190.738281 196.859375 190.777344 195.414062 190.816406 193.96875 C 190.824219 193.753906 190.828125 193.539062 190.832031 193.324219 C 190.835938 193.214844 190.835938 193.105469 190.84375 193 C 190.863281 192.601562 190.894531 192.199219 190.921875 191.800781 C 190.929688 191.6875 190.9375 191.574219 190.945312 191.460938 C 190.988281 191.445312 191.03125 191.433594 191.074219 191.421875 C 191.5 191.289062 191.925781 191.15625 192.351562 191.019531 C 193.34375 190.714844 194.332031 190.398438 195.320312 190.097656 C 195.632812 190 195.945312 189.914062 196.257812 189.820312 C 197.664062 189.410156 199.070312 189 200.476562 188.59375 C 201.160156 188.390625 201.84375 188.199219 202.527344 187.996094 C 202.738281 187.929688 202.953125 187.859375 203.164062 187.789062 C 203.550781 187.664062 203.9375 187.539062 204.324219 187.414062 C 205.503906 187.035156 206.679688 186.65625 207.859375 186.277344 C 208.265625 186.144531 208.671875 186.015625 209.078125 185.882812 C 209.269531 185.820312 209.464844 185.761719 209.65625 185.699219 C 209.792969 185.652344 209.925781 185.601562 210.058594 185.554688 C 210.304688 185.464844 210.554688 185.375 210.800781 185.285156 C 211.546875 185.015625 212.289062 184.746094 213.035156 184.480469 L 215.496094 183.589844 C 215.894531 183.445312 216.296875 183.308594 216.695312 183.15625 C 217.039062 183.03125 217.375 182.894531 217.714844 182.761719 C 218.394531 182.496094 219.074219 182.230469 219.753906 181.964844 C 220.625 181.625 221.492188 181.289062 222.363281 180.949219 C 222.796875 180.78125 223.234375 180.617188 223.664062 180.441406 C 224.117188 180.257812 224.5625 180.066406 225.011719 179.878906 C 225.890625 179.511719 226.773438 179.140625 227.648438 178.773438 C 228.304688 178.5 228.960938 178.226562 229.613281 177.953125 C 229.933594 177.820312 230.253906 177.691406 230.570312 177.550781 C 230.921875 177.398438 231.269531 177.230469 231.621094 177.070312 C 232.285156 176.761719 232.949219 176.457031 233.613281 176.152344 C 234.445312 175.769531 235.273438 175.386719 236.105469 175.007812 C 236.53125 174.8125 236.957031 174.621094 237.378906 174.421875 C 238.097656 174.082031 238.808594 173.734375 239.523438 173.394531 C 240.550781 172.902344 241.578125 172.410156 242.605469 171.917969 L 243.652344 171.417969 C 243.816406 171.339844 243.980469 171.257812 244.148438 171.179688 C 244.441406 171.042969 244.738281 170.910156 245.035156 170.777344 L 246.699219 170.023438 C 246.867188 169.949219 247.03125 169.875 247.199219 169.796875 C 247.347656 169.730469 247.496094 169.664062 247.640625 169.597656 C 247.753906 169.546875 247.863281 169.496094 247.976562 169.445312 C 248.125 169.378906 248.273438 169.3125 248.417969 169.246094 C 248.460938 169.226562 248.5 169.210938 248.539062 169.191406 C 248.558594 169.183594 248.578125 169.175781 248.597656 169.160156 C 248.710938 169.0625 248.933594 169 248.925781 168.851562 C 248.890625 168.375 248.628906 167.945312 248.480469 167.492188 C 248.480469 167.492188 248.441406 167.480469 248.4375 167.476562 C 248.433594 167.476562 248.425781 167.476562 248.421875 167.472656 C 248.375 167.457031 248.328125 167.441406 248.28125 167.425781 C 248.089844 167.363281 247.894531 167.300781 247.703125 167.234375 C 247.300781 167.105469 246.902344 166.972656 246.503906 166.84375 C 246.296875 166.773438 246.082031 166.710938 245.875 166.636719 C 245.679688 166.566406 245.488281 166.496094 245.292969 166.425781 C 243.867188 165.90625 242.4375 165.386719 241.011719 164.871094 C 240.304688 164.613281 239.59375 164.359375 238.886719 164.097656 C 238.710938 164.03125 238.535156 163.960938 238.359375 163.894531 C 238.046875 163.769531 237.734375 163.648438 237.417969 163.527344 C 236.484375 163.164062 235.554688 162.800781 234.621094 162.4375 C 234.019531 162.203125 233.417969 161.96875 232.816406 161.738281 C 232.511719 161.617188 232.199219 161.5 231.894531 161.375 C 231.460938 161.199219 231.03125 161.011719 230.601562 160.828125 C 229.734375 160.460938 228.867188 160.09375 228 159.726562 C 227.328125 159.445312 226.65625 159.160156 225.988281 158.875 C 225.65625 158.734375 225.324219 158.601562 224.996094 158.453125 C 224.554688 158.257812 224.117188 158.054688 223.679688 157.855469 C 222.8125 157.464844 221.945312 157.070312 221.078125 156.675781 C 218.457031 155.488281 215.835938 154.300781 213.214844 153.109375 C 210.160156 151.722656 207.097656 150.359375 204.03125 148.988281 C 200.183594 147.261719 200.75 147.515625 192.480469 143.8125 C 192.042969 133.488281 192.085938 134.503906 191.886719 129.847656 C 191.816406 128.105469 191.742188 126.367188 191.667969 124.625 C 191.664062 124.503906 191.65625 124.382812 191.652344 124.265625 C 192.84375 124.71875 194.039062 125.175781 195.230469 125.628906 C 196.574219 126.140625 197.921875 126.644531 199.265625 127.152344 C 201.789062 128.101562 204.308594 129.054688 206.832031 130.003906 C 207.414062 130.222656 207.996094 130.445312 208.578125 130.664062 C 208.773438 130.734375 208.964844 130.808594 209.160156 130.882812 C 209.257812 130.917969 209.355469 130.953125 209.453125 130.992188 C 209.574219 131.042969 209.695312 131.097656 209.820312 131.148438 C 210.035156 131.242188 210.253906 131.335938 210.472656 131.429688 C 211.125 131.710938 211.777344 131.988281 212.429688 132.265625 C 213.300781 132.640625 214.171875 133.011719 215.042969 133.386719 C 215.460938 133.566406 215.886719 133.742188 216.304688 133.925781 C 216.628906 134.070312 216.949219 134.226562 217.273438 134.375 C 217.875 134.652344 218.480469 134.933594 219.085938 135.214844 C 219.984375 135.628906 220.886719 136.046875 221.785156 136.460938 C 222.082031 136.597656 222.375 136.734375 222.671875 136.871094 C 222.820312 136.941406 222.96875 137.007812 223.117188 137.078125 C 223.460938 137.246094 223.804688 137.425781 224.148438 137.597656 C 224.835938 137.945312 225.523438 138.289062 226.210938 138.636719 C 227.007812 139.035156 227.800781 139.4375 228.59375 139.835938 C 228.992188 140.035156 229.390625 140.230469 229.785156 140.433594 C 230.011719 140.550781 230.230469 140.671875 230.453125 140.792969 C 230.898438 141.027344 231.347656 141.265625 231.792969 141.5 C 233.324219 142.316406 234.855469 143.136719 236.390625 143.949219 C 236.824219 144.175781 237.257812 144.398438 237.695312 144.621094 C 238.550781 145.066406 239.40625 145.507812 240.261719 145.953125 L 242.160156 146.933594 C 242.460938 147.089844 242.761719 147.25 243.066406 147.402344 C 243.386719 147.558594 243.710938 147.707031 244.03125 147.859375 C 244.644531 148.152344 245.261719 148.441406 245.875 148.734375 C 246.757812 149.15625 247.640625 149.574219 248.523438 149.992188 C 248.953125 150.195312 249.378906 150.402344 249.808594 150.601562 C 250.183594 150.773438 250.566406 150.9375 250.945312 151.105469 C 251.660156 151.421875 252.378906 151.738281 253.09375 152.054688 C 253.894531 152.410156 254.691406 152.761719 255.488281 153.117188 C 255.882812 153.289062 256.269531 153.472656 256.667969 153.640625 C 257.222656 153.875 257.789062 154.105469 258.347656 154.335938 C 259.453125 154.796875 260.558594 155.257812 261.667969 155.71875 C 262.089844 155.894531 262.511719 156.070312 262.9375 156.246094 C 263.140625 156.332031 263.34375 156.417969 263.550781 156.5 C 263.757812 156.582031 263.96875 156.65625 264.175781 156.734375 C 264.578125 156.886719 264.980469 157.035156 265.382812 157.1875 C 266.589844 157.636719 267.796875 158.089844 269.003906 158.542969 C 269.515625 158.734375 270.027344 158.933594 270.542969 159.121094 C 270.65625 159.160156 270.769531 159.195312 270.878906 159.234375 C 271.078125 159.300781 271.273438 159.367188 271.472656 159.433594 C 271.550781 159.457031 271.628906 159.484375 271.703125 159.507812 C 271.71875 159.660156 271.730469 159.808594 271.742188 159.960938 C 271.84375 161.136719 271.949219 162.3125 272.039062 163.488281 C 272.171875 165.132812 272.300781 166.777344 272.429688 168.425781 C 272.472656 168.972656 272.515625 169.523438 272.558594 170.070312 C 272.582031 170.332031 272.605469 170.59375 272.621094 170.855469 C 272.640625 171.140625 272.644531 171.429688 272.65625 171.714844 C 272.675781 172.238281 272.695312 172.761719 272.714844 173.285156 C 272.761719 174.457031 272.808594 175.632812 272.855469 176.808594 C 272.867188 177.148438 272.882812 177.488281 272.894531 177.828125 C 272.894531 177.851562 272.898438 177.871094 272.898438 177.894531 C 272.777344 177.945312 272.65625 178 272.53125 178.054688 C 272.101562 178.246094 271.667969 178.4375 271.234375 178.628906 C 269.933594 179.203125 268.632812 179.777344 267.335938 180.347656 C 266.984375 180.503906 266.632812 180.664062 266.28125 180.816406 C 265.859375 180.996094 265.433594 181.167969 265.011719 181.34375 L 262.589844 182.347656 C 261.867188 182.648438 261.144531 182.949219 260.417969 183.25 C 260.1875 183.347656 259.953125 183.445312 259.722656 183.539062 C 259.597656 183.589844 259.476562 183.644531 259.351562 183.695312 C 258.910156 183.867188 258.464844 184.027344 258.023438 184.195312 C 257.164062 184.519531 256.304688 184.84375 255.445312 185.167969 C 254.753906 185.429688 254.058594 185.691406 253.367188 185.953125 C 253.035156 186.082031 252.703125 186.210938 252.371094 186.332031 C 252.007812 186.460938 251.640625 186.582031 251.273438 186.707031 C 250.558594 186.953125 249.84375 187.195312 249.125 187.441406 C 247.847656 187.878906 246.570312 188.316406 245.292969 188.753906 C 244.074219 189.175781 242.855469 189.601562 241.636719 190.027344 C 240.863281 190.292969 240.09375 190.5625 239.324219 190.828125 C 238.945312 190.960938 238.566406 191.085938 238.1875 191.226562 C 237.800781 191.367188 237.414062 191.519531 237.027344 191.667969 L 234.703125 192.550781 C 233.925781 192.847656 233.152344 193.140625 232.375 193.4375 C 231.988281 193.585938 231.597656 193.730469 231.214844 193.882812 C 231.074219 193.933594 230.941406 193.996094 230.804688 194.050781 C 230.53125 194.164062 230.257812 194.28125 229.984375 194.394531 C 229.164062 194.734375 228.347656 195.078125 227.527344 195.421875 C 226.804688 195.722656 226.082031 196.023438 225.355469 196.324219 C 225.003906 196.472656 224.644531 196.617188 224.292969 196.769531 C 223.84375 196.964844 223.398438 197.167969 222.953125 197.363281 C 222.074219 197.753906 221.195312 198.140625 220.3125 198.53125 C 219.675781 198.8125 219.042969 199.09375 218.40625 199.375 C 218.09375 199.511719 217.78125 199.644531 217.472656 199.785156 C 217.230469 199.898438 216.992188 200.015625 216.75 200.128906 L 215.304688 200.808594 L 211.046875 202.820312 C 210.941406 202.871094 210.835938 202.921875 210.726562 202.972656 C 210.59375 203.039062 210.460938 203.109375 210.332031 203.175781 C 210.105469 203.289062 209.882812 203.40625 209.660156 203.519531 C 209.039062 203.839844 208.417969 204.15625 207.800781 204.476562 C 206.96875 204.902344 206.136719 205.332031 205.308594 205.757812 C 204.886719 205.972656 204.460938 206.1875 204.042969 206.40625 C 203.160156 206.867188 202.28125 207.332031 201.402344 207.796875 C 200.546875 208.246094 199.695312 208.695312 198.84375 209.144531 C 198.371094 209.394531 197.898438 209.648438 197.425781 209.890625 C 197.253906 209.980469 197.078125 210.0625 196.90625 210.148438 C 195.3125 210.9375 193.722656 211.726562 192.128906 212.515625 C 191.824219 212.664062 191.515625 212.816406 191.210938 212.96875 C 191.0625 213.042969 190.910156 213.117188 190.761719 213.1875 Z M 271.617188 158.472656 C 271.613281 158.457031 271.609375 158.445312 271.605469 158.429688 C 271.597656 158.359375 271.59375 158.285156 271.59375 158.210938 C 271.59375 158.21875 271.597656 158.226562 271.597656 158.234375 C 271.597656 158.261719 271.601562 158.289062 271.601562 158.316406 C 271.605469 158.339844 271.609375 158.367188 271.609375 158.394531 C 271.613281 158.417969 271.613281 158.445312 271.617188 158.472656 Z M 271.617188 158.472656 " fill-opacity="1" fill-rule="nonzero"/></g></svg>